<?xml version="1.0" encoding="utf-8"?>
<!-- Generator: Adobe Illustrator 25.4.1, SVG Export Plug-In . SVG Version: 6.00 Build 0)  -->
<svg version="1.1" id="Calque_1" xmlns="http://www.w3.org/2000/svg" xmlns:xlink="http://www.w3.org/1999/xlink" x="0px" y="0px"
	 viewBox="0 0 1598 1598" style="enable-background:new 0 0 1598 1598;" xml:space="preserve">
<style type="text/css">
	.st0{fill:#F77F26;}
	.st1{opacity:0.3;}
	.st2{fill:#EA651B;}
	.st3{fill:none;stroke:#EA651B;stroke-width:13.25;stroke-linecap:round;stroke-linejoin:round;}
</style>
<rect x="-1" y="-1" class="st0" width="1600" height="1600"/>
<g class="st1">
	<path class="st2" d="M581.9,770.4c9,0,16.5,4.3,22.5,13c2.6,5.5,3.9,10.3,3.9,14.7c0,10.7-5.3,18.9-16,24.8
		c-3.6,1.5-7.5,2.2-11.4,2.3c-3.8-0.2-6.2-0.5-7.2-1c-0.6,0.4-1.3,0.6-2,0.7h-2.3c-3.7-0.7-5.5-3.4-5.5-8.2c0-5.9-0.1-14.5-0.3-25.8
		C563.6,777.2,569.7,770.4,581.9,770.4z M577,792.3c0,1.7,0.1,8,0.3,18.9c1.5,0.5,3,0.7,4.6,0.7c5.6,0,9.8-3,12.4-9.1
		c0.4-1.3,0.6-2.6,0.6-3.9v-1.6c0-6.2-3.3-10.6-9.8-13c-1-0.2-1.9-0.3-2.9-0.3h-1c-2.6,0-3.9,1.5-3.9,4.6
		C577.1,789.7,577,791,577,792.3z"/>
	<path class="st2" d="M633.6,772.3c9.8,0,16.7,4.8,20.5,14.4c0.4,1.5,0.7,3,0.7,4.5c0,6.6-3.6,12.1-10.8,16.6
		c6.2,3.5,9.6,5.9,10.1,7.4c0.3,0.9,0.6,1.8,0.7,2.7c0,3.4-2.2,5.4-6.5,6.2c-3.7,0-10.1-4-19-12l-0.7-0.3c0.2,2.2,0.3,3.8,0.3,4.9
		c0,5.4-2.4,8.4-7.2,9.1c-3.7,0-5.8-2.2-6.5-6.5c0-1-0.1-3.5-0.3-7.5s-0.5-10.5-1-19.6c0-9.9,2.9-15.9,8.8-18
		C626.3,773,630,772.4,633.6,772.3z M627.4,796.1c0,0.7,1.7,1,5.2,1c5.2-0.2,8.1-1.9,8.6-5.3c0.1-0.3,0.1-0.7,0.1-1
		c0-2.8-2.1-4.5-6.4-5.1h-3.2c-2.7,0-4.1,1-4.2,2.9L627.4,796.1z"/>
	<path class="st2" d="M683.5,773.9h1c3.7,0,6.9,4.2,9.5,12.7c5.2,11.9,9.9,21.7,14,29.3v2.6c0,2.8-2.2,4.7-6.5,5.9
		c-3.9,0-7-3.4-9.1-10.1c-5,2-10.3,3-15.6,3.1c-1.1,0-2.2,0-3.2-0.1c-2.6,6.8-5.3,10.1-8.2,10.1h-1.6c-3.7-1.1-5.6-2.9-5.6-5.6v-1.6
		c0-1.1,3.6-9.4,10.8-24.8c5.4-11.8,8.7-18.3,9.8-19.2C680,774.8,681.7,774,683.5,773.9z M683.2,795.4l-3.6,8h0.3
		c0.7,0.1,1.3,0.2,2,0.2c1.9,0,3.7-0.4,5.4-1C685.1,797.8,683.7,795.4,683.2,795.4z"/>
	<path class="st2" d="M711.6,774.3h1.3c4.1,0,6.8,4.9,8.2,14.7c1.1,3.8,1.9,7.8,2.3,11.7c1.9-3,4-6,6.2-8.8c1.4-0.9,2.9-1.4,4.6-1.6
		c3.8,0,6.6,3,8.5,9.1c0.7,1.1,1.1,1.6,1.3,1.6c0.2-7.5,0.3-13,0.3-16.3V783c0-4.7,2.1-7.4,6.2-8.2h1c4.6,0.8,6.8,3.1,6.8,6.8
		c-0.6,3-1.2,12.8-2,29.4c-1.1,7.6-3.9,11.4-8.5,11.4h-1.9c-4.2,0-8.4-4.1-12.4-12.4h-0.3c-4.7,8.7-9,13-12.7,13H720
		c-3.4,0.2-6.5-1.9-7.5-5.2l-3.2-23.5c-2.4-8-3.6-12.7-3.6-14C706.4,776.4,708.4,774.3,711.6,774.3z"/>
	<path class="st2" d="M811.8,772c9.8,0,16.7,4.8,20.5,14.4c0.4,1.5,0.7,3,0.7,4.6c0,8.7-5.3,14.8-16,18.3c-1.9,0.4-3.9,0.6-5.9,0.6
		h-4.2c0.2,4,0.3,6.5,0.3,7.5c0,2.4-1.1,4.6-3.3,6.8c-1.2,0.7-2.5,1.2-3.9,1.3c-3.7,0-5.8-2.2-6.5-6.5c0-1-0.1-3.5-0.3-7.5
		s-0.5-10.5-1-19.6c0-9.8,2.9-15.8,8.8-17.9C804.5,772.7,808.2,772.1,811.8,772z M805.7,795.8c0,0.7,1.7,1,5.2,1
		c3.9,0,6.5-0.6,7.6-1.8c1-1,1.5-2.4,1.5-3.8c0-0.2,0-0.4,0-0.5c-0.2-2.7-2.4-4.4-6.7-5.3H810c-2.7,0-4.1,1-4.2,2.9L805.7,795.8z"/>
	<path class="st2" d="M852.8,773.9h1c3.7,0,6.9,4.2,9.5,12.7c5.2,11.9,9.9,21.7,14,29.3v2.6c0,2.8-2.2,4.7-6.5,5.9
		c-3.9,0-7-3.4-9.1-10.1c-5,2-10.3,3.1-15.7,3.1c-1.1,0-2.2,0-3.2-0.1c-2.6,6.8-5.3,10.1-8.2,10.1H833c-3.7-1.1-5.6-2.9-5.6-5.6
		v-1.6c0-1.1,3.6-9.4,10.8-24.8c5.4-11.8,8.6-18.2,9.8-19.2C849.2,774.8,851,774,852.8,773.9z M852.5,795.4l-3.6,8h0.3
		c0.7,0.1,1.3,0.2,2,0.2c1.9,0,3.7-0.4,5.4-1C854.3,797.8,853,795.4,852.5,795.4L852.5,795.4z"/>
	<path class="st2" d="M899.8,772.3c9.8,0,16.7,4.8,20.5,14.4c0.4,1.5,0.6,3,0.7,4.5c0,6.6-3.6,12.1-10.8,16.6
		c6.2,3.5,9.6,5.9,10.1,7.4c0.3,0.9,0.6,1.8,0.7,2.7c0,3.4-2.2,5.4-6.5,6.2c-3.7,0-10.1-4-19-12l-0.7-0.3c0.2,2.2,0.3,3.8,0.3,4.9
		c0,5.4-2.4,8.4-7.2,9.1c-3.7,0-5.8-2.2-6.5-6.5c0-1-0.1-3.5-0.3-7.5s-0.5-10.5-1-19.6c0-9.9,2.9-15.9,8.8-18
		C892.5,773,896.1,772.4,899.8,772.3z M893.6,796.1c0,0.7,1.7,1,5.2,1c5.2-0.2,8.1-1.9,8.6-5.3c0.1-0.3,0.1-0.7,0.1-1
		c0-2.8-2.1-4.5-6.4-5.1h-3.3c-2.7,0-4.1,1-4.2,2.9L893.6,796.1z"/>
	<path class="st2" d="M952.5,789.9c0.9,10.2,1.4,19.6,1.4,28.5c0,2.7-2,4.8-5.9,6.2h-1c-3.9,0-6.2-2.4-6.8-7.2
		c-0.1-1.6,0.1-3.3,0.3-4.9c-0.4-11.3-0.8-18.8-1.3-22.5c-0.1-0.8-0.2-1.5-0.3-2c-3,0.7-6,1.3-9.1,1.7c-3.8,0-6-2.3-6.5-6.9
		c0-4.3,4.1-6.8,12.4-7.5c6.2-0.9,12.4-1.3,18.6-1.3c8,0,12,2.5,12,7.5c-0.8,4.6-2.9,6.8-6.5,6.8c-2-0.5-4.1-0.8-6.2-1h-1.3
		L952.5,789.9z"/>
	<path class="st2" d="M1008.9,774.6c4.4,0.5,6.5,2.7,6.5,6.5c0,2.9-2.5,5.9-7.5,9.1c-0.1,0.3-3.4,3.7-10.1,10.1
		c0,1.9,0.1,3.7,0.1,5.4c0,10.3-0.8,16-2.4,17.1c-1.5,1.1-3.3,1.8-5.2,1.9c-4.6-0.9-6.8-3.2-6.8-6.8c0.4-4.3,0.7-8.7,0.7-13v-4.6
		l-13-14c-1-1.2-1.5-2.7-1.7-4.2c0.8-4.3,2.8-6.5,6.2-6.5h1c3.1,0,7.7,4.2,14,12.7l0.6,0.3C999.7,779.3,1005.6,774.6,1008.9,774.6z"
		/>
	<path class="st3" d="M510,1617.6c-7.7-15.1-17.6-29-29.4-41.2c-6.4-6.6-16.8-7.1-23.8-1.2c-19.6,16.5-40.6,31.7-65.1,38.5
		c-23.4,6.5-50.9,3.1-69.4-11.5c-7.3-5.8-3.5-17.6,5.9-18.3c8.5-0.6,17.2,0.4,25.7,1.5c14.8,2,30.2,4.2,44.2-1.1
		c7.1-2.8,13.2-7.8,17.2-14.3c5.1-8.3-2.6-18.8-12.1-16.4c-12.8,3.2-25.9,5.3-39.1,6.3c-7.1,0.5-10.1-8.9-3.9-12.6
		c58.8-35.3,134.9-17.7,172.2,39.7c5.1,7.8,9.8,16.7,19.6,19.4c5.2,1.5,11-0.3,13.8-5c3.3-5.6,0.4-12.4-2.4-18
		c-22.3-43.8-56.8-85.5-105.7-90.3c-14.4-1.4-28.6-4.8-38.8-14c-3.5-3.3-3.7-8.8-0.5-12.3c0.7-0.7,1.5-1.3,2.4-1.8
		c8.6-4.5,19.8-5.2,29.4-8.3c13.1-4.3,23.8-23.6,11.9-30.5c-15.2,12.5-31.6,25.5-51.1,28c-9.6,1.1-19.3-1.1-27.5-6.2
		c-9.4-5.8-5-20.3,6.1-20.1c13.8,0.2,27.9-3.6,40.6-9.3c19.4-8.7,36.6-21.5,55.3-31.5c10.2-5.5,24.4-9.6,32.2-0.9
		c6.1,6.8,4.1,17.8-0.6,25.6s-11.8,14.2-15.7,22.4c-12.1,25.4,9,53.3,27.9,74.2c17.6,19.4,34.6,39.4,50.9,60
		c10.7,13.4,21.6,28.9,20.1,46c8.2,10.6,27.5,1.4,29.3-11.8s-7.5-25.5-17.9-34.1s-22.5-15.5-29.7-26.8
		c-12.7-19.7-8.3-48.8-25.8-64.3c-12.3-10.9-34.5-14.6-35.9-31c-1-12,12.4-21.4,24.4-20.1s21.9,9.8,29.7,19
		c5.4,6.3,10.3,13.2,16,19.1c5.2,5.3,6.5,13.1,4.2,20.2c-2,6.3,4.6,12.2,10.6,9.2c10-5.2,17-18.4,15.3-30.3
		c-2.4-17-15.7-30.1-28.7-41.3s-27-22.9-32-39.3c-1.7-5.8-2.5-12.3-6.8-16.5c-4-3.8-9.9-4.6-15.4-5c-23.3-2.1-47.2-3.2-69.8,2.8
		c-19.5,5.1-38.3,16.2-49.5,32.7c-6.1,9-19.9,8.4-24.8-1.3c-3-5.9-3.9-13.1-1.1-19.1c6.4-14,22.5-20.4,37.1-25.4l75-25.8
		c8.3-2.9,17.1-5.8,25.8-4.3c5,0.9,9.6,3.5,12.9,7.4c4.3,5.1,11.8,5.8,17,1.6c7.6-6,14.1-13.2,19.2-21.4c2.8-4.5,5.3-10.2,0.5-14.9
		c-2.7-2.6-6.4-3.8-10.1-3.4l-63.6,6.1c-19.4,1.9-42.8,6.7-49.1,25.2c-9.1,7.6-23.3-6.3-20.1-17.7s15.2-17.8,26.3-22.1
		c37.3-14.3,77.2-20.3,117-17.8c8.6,0.6,16.6-4.6,19.5-12.8c2.8-7.6,8.2-14,15.3-17.9c10.2-5.8,22.1,4.4,18.3,15.5
		c-3.7,10.9-7.4,21.7-11.1,32.6c-1.3,3.8,0.8,7.9,4.6,9.1c2.3,0.8,4.7,0.3,6.6-1.1c7.6-5.6,13.3-16,16.9-25.2
		c5.7-14.3,11.5-29.4,9.7-44.7s-14.1-30.5-29.5-29.9c-18.2,0.8-28.1,20.6-40.6,34.7c-6.6,7.5-18.3-0.9-13.5-9.6
		c18.6-33.5,55.2-57.2,93.8-58.2c3.1,26.8,6.2,53.5,9.3,80.3c0.4,3.3,1,7.1,5,8.3c1.8,0.5,3.8,0.4,5.6-0.2
		c17.2-5.7,16.4-29.2,12.6-46.5l-15.8-71c-1.4-6.4-3.7-13.9-12.1-13.7c-2.4,0.1-4.7,0.7-6.8,1.9l-61.6,33
		c-11.3,6.1-23,12.4-31.1,22.4c-6.1,7.7-9.8,16.9-14.4,25.6c-20.4,38-62.5,63-105.4,64.3c-8.2,0.1-15,6.7-15.3,14.9
		c-0.7,23.9-22.3,46.8-39.1,66.7c-13.9,16.4-25.4,34.7-36.9,52.8c-4.6,7.3-9.4,15.2-9.2,23.8c0.2,10.9,8.4,20.7,7.7,31.7
		c-1,16.3-19.2,23.8-36,26.9c-3.6,0.7-6.2,3.8-6.2,7.5c0.1,4,3.5,7.2,7.5,7c0.6,0,1.1-0.1,1.6-0.2c15.5-4.1,31.8-4.4,47.5-1
		c5.3,1.2,8.7,6.5,7.5,11.8c-0.6,2.9-2.6,5.4-5.3,6.7c-39.2,19.4-77.5,42.4-99.3,79.7c-4.7,8-8.9,16.9-18.8,19.6
		c-9.6,2.6-19.7-1.9-25.2-10.2c-9.2-14-3.2-32.4,8.7-43.1c9.3-8.4,21.6-12.8,31.6-20.3s17.8-21,12.7-32.4
		c-3.9-8.7-14.5-14.4-14.8-24c-0.5-20,37.1-14,46.3-31.8c6.7-13-7-29.1-2.2-42.8c3.1-8.9,12.7-13.4,19.3-20c11-11,13.6-29.6,6-43.2
		c-7.5-11.1-25.5-1.2-30.8,11.1s-7.1,27.9-18.8,34.4c-13.3,7.3-32-6.4-30.2-21.6c1.4-12.2,13.8-20.8,25.9-20.6
		c4.9,0,8.9-3.9,8.9-8.8c0-1.6-0.4-3.3-1.3-4.7c-3.7-6.1-10.9-10.7-18.2-10.8c-13-0.1-24,9.5-31.6,20c-13.6,18.9-17,50.6,3.7,61.3
		c9.5,4.9,20.8,3.5,31.5,4.2s22.8,5.4,25.4,15.8c-15,12.6-41.9-3.2-56.2,10.2c-9.1,8.5-6.8,23.5-1.7,34.8s12.5,22.5,11.7,34.9
		c-1.9,29.7-45.6,38.2-56.5,65.9c-3.4,8.6-3.2,18.1-5.7,27s-9.4,17.8-18.6,17.7c-15.7-0.3-18.2-22.9-14.6-38.2s4.7-37-10.5-41
		c-14.2,9.5-19.8,27.4-30.3,41s-33.5,21.6-43.4,7.6c-2.1-10.9,12.4-18.5,13.1-29.5c0.9-13.3-19.8-18.3-29.9-9.7
		s-12.4,23.1-15.1,36.2s-7.9,27.6-20.4,32.4c-15.4,5.9-33.1-8.9-34.1-25.3s10.5-31.6,24.7-40c7.4-4.4,16-7.7,21.2-14.6
		s4.4-19.2-3.8-21.8l-58.3,9.8c-4.2-9.6,5.2-20.2,15.3-23.1s21-1.4,31.2-4c10.4-2.9,19.1-10,24.1-19.6c3.2-6,10.7-8.3,16.8-5.1
		c2,1.1,3.7,2.7,4.8,4.6c6.5,11,10.4,27,19.7,36.2c15.7,15.6,40.6,7.6,60.9-3.7c4.3-2.4,9.7-0.9,12.1,3.3c0.1,0.2,0.2,0.4,0.3,0.7
		l0.2,0.3c2,4.5,7.2,6.5,11.7,4.5c1.4-0.6,2.6-1.6,3.5-2.9c5.4-7.9,7.1-17.7,4.7-27c-4-15-16.7-26.3-29.9-34
		c-2.5-1.4-4.5-3.7-5.7-6.3c-6.2-14.4,20.2-18.9,26.8-32.5c5.7-11.9-8.9-25.9-21.8-23.2s-21.2,16-23.1,29s0.9,26.3,1.9,39.4
		c0.8,10.4,0.1,21.6-4.4,30.8c-2.1,4.1-7.1,5.8-11.3,3.7c-0.3-0.2-0.7-0.4-1-0.6c-14.9-10.2-17-35.1-13.4-54.4
		c2.9-15.4,6.7-32.6,3.8-47.3c-1.2-6.3-7.3-10.4-13.6-9.2c-2.9,0.6-5.4,2.2-7.2,4.5c-6.1,8.4-10.8,17.7-13.9,27.5
		c-1.6,5.1-7,7.9-12.1,6.3c-0.8-0.3-1.6-0.6-2.3-1.1c-8.8-5.6-14.2-17.6-12-28.3c3.1-15,17.2-25.8,32.1-29.6s30.5-2.1,45.7-0.3
		l51.1,6c7-7.3-2.6-18.7-11.6-23.3c-28.9-15-64.7-20.1-94.1-6.1s-48.5,50.5-36.6,80.8c3.7,9.4,10.1,18,11.4,28.1
		s-5.9,22.4-15.9,20.9c-8.8-1.3-12.8-11.4-15.1-20c-6.5-24-13.1-48.8-10-73.5s18.4-49.6,42.3-56.3c15.8-4.5,32.7-0.5,49.1-1.7
		s35-11,35.8-27.4c0.3-6.8-2.6-13.4-6.5-19.1c-10-14.6-29.5-24.4-45.7-17.2c-7.3,3.3-12.9,9.5-18.6,15.1c-22,21.9-49.2,38.1-79,46.9
		c-13.1,3.9-33.2,1.4-32.3-12.7c0.3-4,2.3-7.7,5.4-10.3c23.5-19.7,64.8-9.2,82.3-34c11-15.6,7.6-40.2,23.1-51.4
		c17.9-12.9,41.7,3.9,57.1,19.8l26.3,27.3c4.4,4.5,8.8,9.1,11.6,14.8c7.9,16.4,0.8,39.8,15.1,51c6.1,4.8,14.7,5.6,20.8,10.4
		c9.4,7.2,10.5,20.6,10.8,32.4l4.1,146.2c0.3,10.6,14.1,14.7,20,5.9c1-1.4,1.8-3,2.5-4.6c3.6-8.8,2.9-18.7,1.6-28.1
		c-4.8-37.6-16.5-75.2-10.4-112.6s39.3-74.5,76.5-67.1c21,4.2,38.9,21.6,60.3,20.4c9.9-0.6,19-5.1,27.7-9.8c9.4-5.1,19-10.9,24-20.3
		l0.2-0.4c6.2-12.4-8.6-24.6-19.7-16.2c-9.2,7-19.3,12.7-30,17.1c-9.6,3.9-21.8,6.3-29.4-0.7c-9.3-8.5-5.8-24.5-7.1-37.1
		c-0.7-6.1-6.2-10.4-12.2-9.8c-2,0.2-4,1-5.6,2.3c-25,19.5-53.2,34.4-83.4,44c-8.6,2.8-18.3,5-26.1-1.1c-4.2-3.1-5.6-8.8-3.3-13.5
		c2.7-5.2,8.8-6,14.1-6.7c26.9-3.8,51.8-16.3,71-35.4c6.4-6.4,12.2-13.5,20-18c19-10.7,45,3.1,51.4,22.9c2.7,8.5,14.8,9,18.3,0.8
		c1.6-3.5,2.3-7.3,2.2-11.2c-0.5-11.5-7.2-21.7-13.7-31.2c-8.7-12.8-21.6-27.3-36.5-23.4c-6.9,1.8-12.1,7.3-17.1,12.3
		c-24,24.1-53.8,44-87.4,49.1s-71.2-7.2-89.5-35.9c-10.3-16.2-20.5-40.1-40.3-34.1c-2.5,0.8-4.9,2-7,3.5
		c-23.9,17.2-42.6,40.7-54,67.8c-5,12-15.1,27.7-26.8,21.9c-10.3-5.1-7-20.5-2.1-30.9C6,1195.7,20,1166.6,44,1146.8
		s61-27.5,86.2-9.3c11.2,8.3,18.8,20.6,21.3,34.4c1.7,9.7,15.4,10.2,17.6,0.7c1.4-6,1.4-12.3,0-18.3c-6.4-25.6-25.3-46.2-50.2-54.8
		c-25.1-8-52.6-2.8-73,13.9c-14.4,12.1-23.8,29-36.9,42.5s-32.7,23.9-50.3,17.4c23.8-45.1,63.4-79.8,111.3-97.4
		c7.5-2.7,16.1-5.7,17.7-14.7c0.5-3.3,0.1-6.6-1.4-9.7c-6.8-15.4-27.5-18.6-42.2-11.7c-13.8,6.5-23.2,19.5-31,32.6
		c-8.7,14.7-21.5,32.7-38,28.5c-3.5-16.6,7.8-32.8,21-43.5s28.9-18.4,40-31.2c9-10.3,12.6-29.4,0.3-35.4
		c-15.5-7.5-31.9,16.6-48.4,11.5c-12-3.7-13.9-21.8-5.5-31.2s22.2-11.4,34.7-10.6c46.4,3.1,86.9,42.6,94.1,88.1
		c1.4,8.8,14.2,8.6,15.3-0.3c0.8-7.2,0.2-14.4-1.6-21.3c-6.9-26-16.1-52.1-33.4-72.6s-44.3-34.6-70.8-30.5c-9,1.4-17.5,4.8-26,8.3
		c-7.9,3.2-14.5-6.8-8.4-12.7c3.7-3.5,8-6.3,12.7-8.1c11.1-4.3,24.1-6.4,31.7-15.6c9.1-11,6.3-28.3-2.4-39.6S7.2,837.5-5.4,830.8
		c-6.2-3.3-12.8-7-15.8-13.4c-6.3-13.2,8.6-28.8,23.2-28.3s26.8,11.4,35.8,22.9c18.2,23.4,29.3,51.6,32.1,81.1
		c0.8,9,13.6,9.7,15.6,0.9c1.4-6.8,1.6-13.7,0.6-20.5c-5.4-39.3-13-82.7-44.3-107C22.5,751.8-2.4,747-25.7,753.3
		c-5.3-6.7,2.9-15.7,10.3-20.1c15.5-9.2,34.3-17.8,50.9-10.8c22.3,9.3,26.7,40.4,46.5,54.4c16.7,11.8,45.5,14.2,46.8,34.6
		c0.7,11.4-9.1,20.3-15.5,29.8s-7.5,25.9,3.5,29.2c9.3,3.8,19.4-2.7,27.4-8.9c15.2-11.8,32.1-28.3,27.1-46.9
		c-2.9-10.5-12.1-17.7-18.1-26.8s-6.9-24,3.1-28.4l2.1,0.2c8,0.7,15,5.8,18.1,13.2c7.5,18.1,20.8,33.2,37.8,42.9
		c4.8,2.7,6.5,8.7,3.8,13.5c-1.5,2.7-4.1,4.5-7.2,4.9c-3.5,0.5-7,0.9-10.2,1.3c-11.2,1.6-23.7,15-14.9,22.2
		c27.4-1.7,54.5-6.6,80.7-14.4c15-4.5,15.7-25.7,1-31.1c-13.6-5-30-8.1-41.5-16.4c-14.7-10.5-20.8-29.1-30.9-44.1
		s-30.4-27.5-45.6-17.5c-8,5.3-11.6,15-17.6,22.5c-6.1,7.5-18.5,12.1-24.7,4.7c4.5-18.1,10.6-36.5,23.2-50.4s33-22,50.4-15.3
		c9.2,3.5,16.5,10.7,23.5,17.6c15.9,15.7,31.9,31.6,44.4,50.2c4.5,6.8,8.7,14.1,14.9,19.4c8.1,7,18.9,9.8,29.2,12.5l42.5,11
		c11.5,3,17.3,16.2,11.2,26.5c-5.7,9.7-15.8,17.7-26.4,22.2c-18,7.7-38.3,9.2-56,17.5c-10.9,5.1-20.6,12.7-32,16.6
		c-17.6,6-36.9,2.4-55.3-0.7s-38.2-5.4-54.9,2.8s-27.4,31.2-16.5,46.2c5,6.9,13.2,10.6,20.2,15.5c18.5,13.1,29.5,34.3,29.4,57
		c-0.4,26.1-14.8,55.5,1.1,76.2c11.3,0,20.7-9.8,24.1-20.6s2.1-22.4,0.8-33.6l-7.5-63c-0.9-7.2-1.8-14.7-5.5-21
		c-6.3-10.6-18.2-14.9-30.8-16.7c-8.7-1.2-11-12.9-3.3-17.3c7.9-4.4,16.9-6.3,25.9-5.6c16.4,1.3,31.2,10,44.4,19.9
		c4,3,8,6.3,9.8,10.9c2.2,5.6,0.8,12-0.5,17.9c-4.6,21.3-6,43.2-4.2,64.9c1.4,16.9,4.7,34.2,0.5,50.7c-3.4,13.2-13.5,25.7-26.1,29
		c-6.1,1.5-9.8,7.7-8.3,13.9c0.2,0.6,0.4,1.3,0.7,1.9c5.4,12,18.6,20.5,28.9,13c5-3.6,7.4-9.6,10.8-14.7c6-8.8,14.9-15.1,25.1-17.9
		c7.9-2,13.7-8.8,14.4-17c0.4-4.9-0.7-9.3-4.6-11.6c-6.6-3.7-8.9-12-5.2-18.5c0.4-0.8,0.9-1.5,1.5-2.2l16.6-19.5
		c2.6-3,7.1-3.4,10.1-0.8c1.7,1.4,2.6,3.5,2.5,5.7c-0.6,21,8.3,42.9,22.6,58.8c4.4,4.9,9.6,11.3,5.7,17.2c-0.8,1.1-1.8,2.1-2.9,2.8
		c-15.7,10.3-40.4,2.2-52.1,16.8c-6.3,7.8-6,19.7-13.2,26.7c-11.1,10.9-32.7,3.1-42.4,17.2c-5.1,7.4-4.2,17.3,1.4,24.3
		c10.5,13.1,29.2,12.1,42.6,4.3c11.1-6.5,19.3-17,27-27.3s15.3-21.1,25.8-28.6c16.6-11.9,39.7-14,58.4-5.8s32.8,26.2,36.6,46.3
		c2.6,13.8,1.7,30.2,12.5,39c5.9,4.8,13.9,6,21.5,6.3c26,1,51.7-5.9,76.8-12.9c11.2-3.1,23-6.5,31-15c3.3-3.5,5.5-7.8,6.5-12.5
		c2-9.6-8-17.2-16.8-12.8l-41.5,21c-14.6,7.3-32.6,14.6-46.4,5.8c-19-12.2-12.2-42.6-24.5-61.6c-6.4-9.8-17.2-15.5-27.2-21.5
		s-20.2-13.4-23.8-24.5s3.4-26,15.1-25.9c4.8,0,9.2,2.4,13.1,5.2c10.1,7.1,18.2,16.8,27.8,24.7c4.6,3.8,9.7,7,15.2,9.3
		c3.4,1.4,7.2-0.2,8.6-3.6c1-2.3,0.5-5-1.1-6.8l-35.8-40.6c-6.7-7.6-13.7-16-14.3-26.1s9.2-21,18.7-17.4
		c11.5,4.4,14.5,25.5,26.5,22.6c7.2-1.7,8.7-11.5,6.6-18.6c-5.4-18.7-26-31.1-45.4-28.7s-35.7,18.5-40.1,37.5
		c-2.7,11.4-1.6,23.7-6.5,34.3c-5.6,12-24.4,19.6-31,5.1c-1.3-3.1-1.9-6.4-1.6-9.7c2-25.9,9.9-54,30.6-70.2
		c11.1-8.6,24.9-13,38.5-16.7c16.4-4.4,33.5-8,50.3-5.9s33.7,11.1,41.4,26.2c4.7,9.3,5.7,20,9.3,29.7c1.4,4,3.5,7.7,6.2,11.1
		c3.2,3.9,8.9,4.5,12.8,1.4c2.2-1.8,3.4-4.4,3.4-7.3c-0.4-29.1-11.1-57-30.1-79c-14.6-16.7-40.1-29.3-58.2-16.5
		c-8.8,6.2-13.5,17.2-22.6,23.1c-12.5,8.1-30.1,4.5-42.6,12.6c-8.4,5.4-14.1,15.8-24,17.1c-14.3,2-22.9-18.7-15.3-31
		s23.4-16.4,37.8-17.2c7.5-0.5,15.2-0.3,22.4-2.3c10.5-2.9,18.9-10,26.5-18c3.6-3.9,3.4-10-0.5-13.6c-1.6-1.5-3.6-2.4-5.8-2.6
		c-5.2-0.3-10.5,0.1-15.7,1c-25.9,4.2-52.2,10.6-73.6,25.7s-37.1,40.8-34,66.8c0.6,5.2,1.7,11.2-2.5,14.7c-2.7,2.2-6.4,2.6-9.5,1
		c-5.8-2.8-8.1-8.9-9.4-14.8c-7.6-34.7,11.4-70.8,38.6-93.5s61.7-34.6,95.3-45.8c-1.2-20.6-2.7-41.9-12.4-60.1s-30.1-32.4-50.3-28.2
		c-6.3,1.3-12.5,4.4-18.8,3.5c-12.7-1.7-18.3-19.4-11.5-30.2s21.2-14.7,33.9-13s25.3,18.8,37,24c15.1,6.8,28,9.8,38.5,22.6
		c22,26.8,10.7,61,26.3,91.9c11.7,23.3,37.3,35.3,57.6,51.8c31.3,25.7,50.7,63.1,53.6,103.5c1,14.4-0.6,29.9-9.4,41.4
		s-26.7,16.8-38.3,8.1c-8-6.1-12.3-17.8-22.4-19.1c-6.1-0.8-11.9,2.7-14.7,8.2c-4.5,8.7-1.1,18.8,5,25.6
		c11.4,12.8,30.9,15.4,47.5,11c16.5-4.4,30.7-14.7,44.6-24.8c3.6-2.6,7.3-5.4,9.4-9.3c2.4-4.5,2.3-9.9,2.2-15l-1.5-60.6
		c-0.2-8.3-0.2-17.5,5.1-23.9c7.6-9.2,22.1-8.7,33.4-8.7c1.3,0,2.5,0.2,3.7,0.5c14.3,4.7,8.2,20.7,0.8,30.1
		c-8,10.1-16.8,19.7-22,31.5s-6,26.4,1.7,36.7c5.2,6.9,14.2,12.1,14.6,20.7c0.4,7.7-6.6,13.8-13.8,16.5s-15.1,3-22.2,6
		c-12.1,5.1-19.8,16.9-29.8,25.5c-22,18.9-53.1,20.6-82.5,19.9c-6.2-0.1-11.3,4.7-11.4,10.9c0,1.5,0.2,3,0.8,4.4
		c2,5,5.8,9.1,10.6,11.6c9.9,4.8,21.5,3.3,32.3,1.4c33.1-5.7,66.7-14.2,93.7-34.3c12.3-9.2,23.2-20.7,37.3-26.7
		c14.5-6.1,31-5.7,46-10.2c10.1-3.1,20.5-8.3,30.6-11.8c11.8-4,24.6,2.3,28.6,14.1c1,3,1.4,6.1,1.1,9.2l-2.6,30.2
		c-0.3,3.7,2.4,7,6.2,7.4c0.6,0.1,1.3,0,1.9-0.1c6.5-1.3,12.6-6.8,15.1-13.2c3.5-9.3,1.8-19.8,0.4-29.7s-2.4-20.6,2.5-29.3
		c3.3-5.9,9-10.3,11-17.1c0.7-2.3,0.8-4.7,0.1-7c-1.7-5.8-6.7-6.8-11.3-6.8c-26.1-0.1-47.3,22.9-73.2,25.4
		c-18.5,1.8-37.5-7.9-47.4-23.6s-10.8-36.6-2.9-53.3c6.9-14.4,19.4-25.3,34.5-30.3c4.8-13.9-6.2-29.3-20-34.3s-29.1-2.5-43.5,0.4
		s-29.3,6.3-43.6,2.7c-18.2-4.6-31.8-19.5-48.6-27.6c-3.7-1.8-7.7-3.3-10.6-6.2c-2.4-2.3-4-5.4-5.6-8.4l-27.6-53.7
		c-3.2-6.1-6.4-12.6-6.2-19.5c0.1-4.2,1.5-8.3,3.9-11.8c8.8-13.4,29.4-10.2,34,5.1l14.7,48.5c0.5,1.8,1.2,3.5,2.1,5.1
		c9.7,16.7,28.5,2.8,29.1-11.3c0.5-11.8-6.4-22.5-11.4-33.2c-9.6-20.8-12.1-45.7-2.2-66.3c21.3-44.8,75-30.2,84.8-27
		c22.3,7.4,47.4,6.5,69.6,14.1c2.5,0.9,5.2,2.1,5.3,5.5c-0.1,3.1-2.2,5.7-5.1,6.7c-20,5.8-35.2,4.7-53.7,1
		c-15.5-3.1-30.7-8.3-46.2-5.1c-24.5,5-34.7,46.7-27.5,70.6c3.7,12.3,11.8,24.4,24.1,27.7c9.7,2.6,19.9-0.7,29.3-3.9
		s19.7-6.6,29.4-4.2s18,13.3,13.8,22.4c-3,6.5-10.5,9.3-17.4,11.3c-26.3,7.6-53.3,12.4-80.5,14.3c-5,0.3-8.7,4.6-8.4,9.6
		c0,0.5,0.1,1.1,0.3,1.6c1.5,5.3,5.3,9.7,10.3,12.1c8.5,3.8,18.4,2.2,27.6,0.5l73.3-13.3c7.9-1.4,16.9-2.6,23.1,2.4
		c10.5,8.5,4.1,25.1,4.8,38.5c0.6,10.5,7.1,20,16,25.6s20.4-2.1,18.5-12.6c-2.4-13.2-2-26.6,6.5-36.4c5.7-6.5,14.1-10.1,18.1-18.4
		c1.8-3.5,1.8-7.6,0.1-11.1c-4.8-9.2-18.3-5.8-28.7-5c-13.3,1-26.3-4.6-34.8-14.8c-3-9.5,10.8-14.7,20.8-15.1l55.6-1.8
		c13.3-0.5,24.4,9.9,24.9,23.2c0,0.7,0,1.3,0,2c-0.9,16.9-10.8,34.7-23.9,46.5c-9,8.2-20.2,20.9-12.4,30.2c7.5,8.9,21.8,1,30.2-7
		c19.3-18.3,40.3-42.4,33.2-68c-1.8-6.6-5.5-12.7-6.2-19.6c-0.7-8.2,5.5-18.2,14.8-13.9c3,1.4,5.3,3.9,6.7,6.9
		c8.9,19.2,19.5,41.1,13.2,61.7c-2.7,8.9-8.4,16.5-14,23.9L773.5,980c-2.2,3-4.5,6-7.8,7.8c-4,2.2-8.8,2.2-13.4,2.2l-67.6-0.9
		c-15.4-0.2-33,0.6-42.4,12.9c-11.3,14.9-2.4,37,16.1,39.7c13.7,2.1,25.2-7.5,37.1-13.9c21.8-11.8,55.7-20.6,77.4-8.6
		c19.1,10.6,26.5,38,15.3,56.8c-4.7,7.9-11.9,14-16.7,21.8s-6.5,18.9-0.2,25.5c28.9,4.1,49.7-29.4,51.2-58.6s-7.5-59.1,0-87.3
		c7.4-27.7,29.4-48.6,50.5-68c3.7-3.4,7.5-6.9,12.3-8.4c14.7-4.7,28.6,13.4,25.8,28.6s-15.8,26.2-28.5,35s-26.7,17.3-33.8,31
		c-14.4,28.1,6.4,63.4-3.9,93.2c-13.6,39.4-69,43.9-96.9,74.8c-25.1,27.7-22.6,69.5-16,106.8c0.7,4.1,4.5,6.8,8.6,6.1
		c0.3,0,0.6-0.1,0.9-0.2l0.3-0.1c3.1-1.1,5.2-4.1,5-7.4c-2.3-48.9,21.9-98.3,62.1-126.2c9.9-6.9,21.7-12.7,33.6-11s22.8,14,19,25.4
		c-1.7,5-5.6,8.9-9.7,12.3c-25.8,21.6-61.8,33.3-77.2,63.2c-10.9,21.2-8.4,46.1-3.4,70c2.3,11.1-8.8,20.5-19.3,16.1
		c-6.1-2.7-11.5-6.8-15.6-12c-9.1-11.5-14.3-26.3-25.7-35.7s-32.9-8.5-36.5,5.7c-3.5,14,12.3,24.1,24.3,32
		c18.6,12.4,33,30,41.5,50.7c5.3,12.7-9.1,24.7-20.5,17c-25.5-17.1-43.8-54.7-75.3-61.8c-19.4-4.3-41.1,5.5-50.5,23
		s-5.9,41,8.3,54.9c13.8,13.5,37.2,20,41.1,38.9c2.5,11.8-2.7,27.6,7.7,33.6c10.9,6.3,22.6-8.2,23.8-20.7
		c2.9-32-23.2-60.3-53.8-71.1c-5.8-2.1-8.9-8.5-6.8-14.3c0.7-1.9,1.8-3.6,3.4-4.9c6.5-5.4,16.8-8.3,25.6-7.2
		c35.5,4.4,62.2,40.6,61.1,76.4s-26.5,68.2-58.9,83.2c-13.9,6.5-31.6,13.2-33.5,28.4c-2.1,17.4,18.2,27.9,34.9,33.2L757,1603
		c4,1.3,8.2-1,9.5-4.9c0.8-2.6,0.2-5.4-1.6-7.4c-23.2-25.1-55.4-40-89.5-41.3c-6.1-0.2-10.9-5.4-10.7-11.5c0.1-3,1.4-5.8,3.7-7.8
		c16.1-14.4,39.9-20.4,60.4-13.2c21.2,7.5,36.5,26.3,55.3,38.5c7.2,4.7,16.7-1.4,15.2-9.9c-4.1-22.8-23.3-43.2-46.7-46
		c-15.6-1.9-38-1.7-39.4-17.4c-0.8-9.6,8.7-16.9,17.9-19.6c21.4-6.2,45.1,2.5,61.6,17.6s26.7,35.7,34.8,56.5
		c9.7,24.9,16.4,54,3.7,77.5c9.3,3.9,20.5-2.4,25.3-11.3s4.6-19.6,3.9-29.7c-2.5-34.5-10.7-68.4-24.4-100.3c-9.9-23-28-47.9-52.9-46
		c-8.3,0.7-17.2,4.3-24.4-1.2c-5.6-4.3-7-12-4.1-18.4c5.5-12.2,19.1-15.2,31.3-14.4c46.1,2.9,77.6,50.3,85,95.8
		c1.8,11.2,5.8,25.7,17.2,25.9c13.8,0.3,15.9-19.7,13.1-33.2l-11.5-55c-1.7-8-3.4-16.2-7.9-23.1c-4.8-7.4-12.2-12.7-19.5-17.7
		l-36.2-25.1c-4.9-3.4-10.7-6.9-16.3-5.1c-5.1,1.7-7.9,7.1-12.5,10c-9.2,5.7-22.3-2.4-24.1-13s5-21.2,13.8-27.4
		c19.2-13.4,48.6-8.6,62.5,10.2c6.6,8.9,12,21.7,23.2,22c8.2,0.3,14.9-7.3,16.5-15.3s-0.5-16.2-2.7-24.1c-1.2-4.4-2.5-9-5.8-12
		c-7.1-6.6-18.6-2.7-28-5.2c-14.6-4-19.5-24.9-10.5-37c3.5-4.5,8.2-7.9,13.6-9.8c13-4.5,27.3,2.3,31.8,15.4c0.1,0.4,0.3,0.8,0.4,1.1
		l2.3,7.7c1.4,4.6,6.3,7.3,10.9,5.9c1.7-0.5,3.2-1.5,4.3-2.8c11-13.3,11.5-35.9-0.4-49.4c-15.2-17.3-44.1-18.3-63-5.2
		c-16.1,11.1-25.2,30.1-27.3,49.6c-0.5,4.7-4.7,8.1-9.4,7.6c-2-0.2-3.9-1.1-5.3-2.6c-2.4-2.5-4.1-5.6-5.1-9
		c-2.3-8.6,0-17.7,3.5-25.9c13.4-31.5,44.7-54.7,78.8-58.3c7.5-0.8,15.6-0.9,21.7-5.4c3.4-2.5,5.8-6.2,7.8-10
		c7.8-15.2,9.1-34.6-0.2-48.9c-7.1-10.4-19.1-16.4-31.7-15.6c-7.5,0.6-11.9-8.2-7.2-14c7.4-9.2,20.4-14.7,32.4-12.5
		c18.7,3.5,32.3,20.9,37,39.3s2.1,37.9-1,56.6s-6.6,37.9-3.7,56.7c3.5,23.2,16.5,43.8,28.4,63.8c2,3.4,5.7,5.5,9.7,5.2
		c9.9-0.8,7.9-16.1,3.5-25.2c-21.1-43.7-22.2-96.6-2.8-141c2.1-4.8,4.9-9.3,8.2-13.3c8.5-10,24.8-4.6,26.2,8.5
		c2.8,27.6,0.8,55.5-5.8,82.4c-3.1,12.6-7.3,25.4-5.5,38.3c2.3,16.3,13.5,28.9,26.7,39.5c3.9,3.1,4.5,8.8,1.4,12.7
		c-1.1,1.4-2.6,2.4-4.3,3c-7.6,2.4-14.6,6.1-20.8,11s-11.8,11-19.4,13c-10.6,2.7-19.9-3.3-27.3-12.1c-6.5-7.7-18-8.6-25.7-2.1
		c-2.7,2.3-4.6,5.2-5.6,8.6c-1.6,5.6-2.9,11.3-3.7,17.1c-5.9,38-11.6,77.8,1,114.1c7,20.2,19.5,39.8,25.1,59.9
		c3.5,12.5-3.8,25.4-16.3,28.8c-2.5,0.7-5.2,1-7.8,0.8l-23.8-1.6c-13.3-0.9-21.8,14.2-13.8,24.9c5.3,7.1,12.9,12.1,21.4,14.3
		c17.8,4.2,36.1-2,53.5-7.3c30.6-9.4,69.4-14.2,89.7,10.5c7.6,9.2,14.4,23,26.2,21.6c11.5-1.4,15.1-18,8.8-27.7
		c-6.6-9.9-16.7-16.9-28.3-19.4c-106.4-22.9-112.4-96.1-114-167.3c-0.2-7.2,0.6-15.6,3.5-22.3c3.9-9,17.2-7.2,18.8,2.5l7.4,45.2
		c7.5,45.6,19.4,97.6,60.3,119.2c33.9,17.9,81.2,10.4,106,39.6c11.7,13.8,19.3,35.8,37.3,36.3c8.7,0.2,15.6-6.9,18-15.1
		c2.6-8.7-4-17.3-13.1-17.8c-12.2-0.8-23.9-10.5-31.7-20.9c-9.7-12.8-17.7-28.2-32.2-35.1c-17.2-8.2-37.6-1.7-56.6-3.3
		c-14.9-1.3-28.9-7.6-39.8-17.9c-9.5-9-16.3-22.2-13.7-35.1s17.7-22.9,29.4-17.1c6.2,22.4,21.2,48.7,44.3,45.7
		c10.1-1.3,18.8-8.4,29-9.3c13-1.1,24.6,8.4,31.9,19.2s12,23.3,20,33.5c7.6,9.5,25.5,14.8,29.6,3.3c3.1-8.9-6.4-16.4-13-23.1
		c-20.5-20.7-25.4-61.6-54.4-64.1c-11.7-1-22.5,5.6-33.9,8s-26.7-2.3-27.5-14c-0.7-10.5,11.2-17.5,21.7-18.3
		c2.7-0.2,5.4-0.2,8.1-0.1c8.8,0.3,12.7-11,5.6-16.1c-18.2-13.1-39.2-22.1-61.2-26.3c-2.2-0.4-4.6-0.2-6.7,0.6
		c-14.2,5.7,1.1,30.7-11.2,37.7c-15.1,8.5-34.6-7.8-35.4-25.1s10.6-32.7,22.6-45.1c7.9-8.2,17.3-16.3,28.7-17.3
		c29.6-2.7,51.9,42.5,79.6,31.8c6.9-6,4.2-17.8-1.8-24.7s-14.5-11.5-20.1-18.8c-7.9-10.3-8.8-24.3-15.2-35.6
		c-6.5-11.5-18.2-19.2-26.7-29.3s-13.3-26.2-4.6-36.2s26.3-7,35.5,2.7s12.3,23.5,15.2,36.6s6.3,26.9,16,36.2
		c8.1,7.9,20,11.8,26.4,21.2c5.7,8.3,5.7,19.1,6.2,29.1c1.7,38.8,11.6,76.8,29.3,111.4c6.7,13.2,14.9,26.2,27,34.7
		c23.4,16.4,54.9,12.3,83.1,7.5c2.9,16-19.1,23.7-35.3,23.7c-16.8,0-39.4,3.7-39.6,21.2c0,2.9,0.6,5.8,1.8,8.5
		c15.1,35.8,57.7,57.1,95.5,48.5c18.5-4.2,34.9-14.5,52.6-21.1s39-9.1,54.6,1.7c6.2,4.3,11.8,10.7,19.4,11.1
		c9.6,0.5,17-10.2,15.7-19.8s-8.9-17.1-17.3-21.7c-53.6-29-125.6,40.5-176.8,7.2c-3.8-2.5-7.6-5.9-5.7-11.6c1.2-3.3,3.8-5.9,7.1-7.1
		c19.6-7.4,40.9-3.9,61.6-5.2c10.7-0.7,22-3.2,31.3-8.4c8.8-4.9,8.9-17.4,0.5-22.9c-17.7-11.8-29.9-37.3-51.7-39.8
		c-17.4-2-32.7,12-50,14c-28,3.3-49.3-23.6-64.4-47.4c-6.6-10.5-13.5-21.6-13.8-34s9-25.8,21.4-25.3c15-0.9,25.2,14.9,30.1,29.1
		s9.2,30.8,22.6,37.6c15.4,7.8,31.7-1.7,44.8-14.6c6.5-6.4,16.9-6.4,23.4,0c0.3,0.3,0.5,0.6,0.8,0.9c26.4,30.7,54.7,60.5,90.6,78.8
		c16.8,8.6,35.7,14.9,48.2,29c14.6,16.3,18.4,40.8,35,55.1c13,10.9,31,13.5,46.6,6.8c9.8-4.4,18.5-15.3,14.3-25.2
		c-6.8-16.3-32.2-6-48.8-11.9c-29.1-10.2-23.3-66.3-53.9-69.6c-11.6-1.2-25.2,6.5-34-1.2c-10.9-9.7,2.7-27.5,16.7-31.5
		c27.3-7.8,59.1,4.9,73.5,29.4c10.3,17.4,14.9,42,34.3,47.9c14.2,4.3,31.5-4,43.6,4.6c9.6,6.8,10.4,20.9,7.6,32.4s-8.3,22.5-8,34.3
		c12.8,5.3,27.7-4.8,32.6-17.7s2.7-27.3,0.4-40.9c-1.5-8.7-3.1-17.7-8.3-24.8c-8-10.8-22.3-14.4-35.6-16.2s-27.4-2.6-38.5-10.1
		s-17.2-24.5-8.3-34.5c8.8-9.8,25.3-6.4,36.1,1.2s19.3,18.6,31.6,23.6s30.2-0.7,30.7-13.8c0.4-11.2-11.3-18.4-21.4-23.2l-50.7-23.7
		c-9.9-4.6-20.6-9.4-31.3-7.3c-15.9,3.1-28.7,20.7-44.4,17c-19.5-4.6-28.9-39.1-47.2-31c-12.4,5.5-9,24.1-15.3,36.2
		c-7.1,13.6-27,16.2-40.3,8.5s-20.9-22.4-25.4-37c-3.7-12.1-7.4-26.5-19.1-31.1c-10-4-21.1,1.3-30.3,6.9
		c-10.7,6.6-22.1,14.3-34.6,12.8s-22.4-18.6-13-26.8l39.5-24.4c3.2-2,6.9-4.5,5.4-9.4c-0.4-1.5-1.2-2.9-2.3-4
		c-9.8-10.7-22.6-18.3-36.7-21.8c-17-4.2-40.2-6.5-42.8-23.8c-1.7-11.1,8.4-21.3,19.5-23.5s22.3,1.7,32.5,6.5
		c40.6,19.1,73.1,52,91.7,92.8c4.3,9.6,8.2,20,16.2,26.9s22.1,8,28.1-0.7c5.6-8.1,1.4-19.1-3.3-27.7c-17.8-32.5-40.8-61.7-68.2-86.6
		c-5.2-4.7-10.9-9.8-12.2-16.7c-2.4-12.7,12.6-23.3,25.4-21.3s22.7,12.1,30.6,22.3c19.6,25.1,33.8,54.1,53.7,79s47.5,46.4,79.3,47.7
		c17.6,0.7,36.8-4.5,51.6,5c14.4,9.2,22.7,31.1,39.7,29.5c12.8-1.2,19.8-17.6,15.2-29.6s-17.2-19.2-29.6-22.2s-25.5-2.8-38.2-4.9
		c-5.9-1-12.1-2.7-16.3-7c-9.4-9.6-3-27.2,8.7-33.7s26-5.4,39.4-4s27.7,2.6,39.4-3.8c5.7-3.1,10.7-8.9,9.7-15.3
		c-0.6-3.8-3.2-6.9-6-9.6c-20-19.2-53.7-22.1-76.7-6.6c-12.2,8.2-24.2,21.6-38.5,18.3c-24.7-5.7-22.7-53.2-48.1-53.7
		c-9.5,27.4,25,57,25,82.5c0,6.8-8.6,9.8-13,4.6l-56.1-67.9c-4-4.9-8.2-10.1-9.3-16.3c-2.7-16,15.9-27.3,32-29.4s34.1-0.6,46.5-11.1
		c1-18.1-23.8-24-41.9-23.5c-32.5,0.8-65.2,1.7-96.8,9.4c-37.5,9.1-71.9,27.5-105.9,45.7c-20.7,11.1-44.9,29.7-38.5,52.3
		c2.9,10.2,11.6,17.6,15.8,27.3s0.2,24.7-10.3,24.4c-9.4-0.3-13.4-11.8-14.9-21.1L1160,1215c-1-5.9-0.8-14,5.9-14.8
		c2-0.2,3.9,0.3,5.6,1.4c21.8,13.8,48.8,34.1,71.7,21c13.5-7.7,19.6-24.9,33.7-31.6c15.7-7.5,33.9,1.3,50.9,5
		c32.7,7,66-5.3,97.2-17.4c7.5-2.9,15.9-6.8,17.9-14.6c3.5-13.1-14.7-22.2-27.8-18.8s-23.8,13.4-37.1,16.3
		c-29.9,6.4-58.3-25.2-88.1-18.6c-18.2,4-30.2,20.9-43,34.5s-32.9,25.4-49.3,16.5c-17.2-9.3-22.3-37.4-41.7-38.5
		c-13.4-0.7-23.1,13.3-25.8,26.4c-7.7,37,16.2,77.8-0.2,111.8c-18-3.8-22.5-27-23.1-45.4l-2.1-59.6c-0.4-12.7-0.8-25.9,4.2-37.7
		c11.3-26.2,44.7-34.7,73.2-32.7s57,11,85.1,5.8c27-4.9,53-22.7,79.7-16.2c18.6,4.6,34.2,20.8,53.3,20c23.9-1,37.7-26.7,56.4-41.9
		c6.5-5.3,16,0.8,14,9c-9.3,38.6-1.4,80.7,6.7,120.4c3.1,15.3,6.5,31.2,16.1,43.5s27.3,19.8,41.3,12.8c12.8-6.4,20.7-23.5,35-23.1
		c7.2,0.2,13.7,5.2,20.9,5.5c16.1,0.5,22.9-20.4,23.6-36.5c0.2-5.5-0.1-11.9-4.6-15s-10.8-1-16.3-0.6c-17,1.3-31.2-15.9-31.8-32.9
		s8.8-32.9,20.2-45.5s25-23.3,35.4-36.8c5.9-7.6,10.9-16.7,10.1-26.3s-9.5-18.9-18.9-17.2c-6.9,1.2-11.7,7.5-15.7,13.2l-44.4,63.2
		c-15.6,22.1-31.6,51-17.9,74.3c4.3,7.4,11.3,13.3,13.8,21.5c2.7,9.1-5.8,22.2-15.1,15.3c-1-0.8-1.9-1.7-2.7-2.7
		c-27.1-34.9-34.9-83.7-20.3-125.4c4.5-12.9,11.4-25.5,22.3-33.8c7.5-5.7,16.5-9,24.1-14.6c23-16.9,27.2-49.1,42.7-73
		c7.2-11.1,16.9-20.5,23.6-31.9c7-11.9,10.4-27.6,2.7-39.3c-1.1-1.8-2.6-3.2-4.4-4.3c-6.3-3.6-12.1,0.8-16.1,5.4
		c-12.8,14.7-18.2,34.2-23.3,53s-10.9,38.3-24.3,52.4c-13.4,14.1-36.8,20.8-52.7,9.5c-3.9-2.8-7.3-6.5-11.7-8.4
		c-15-6.3-28.4,11.3-35.7,25.8s-26.6,32.3-40.8,24.2c-31.6,16.1-73.2,9.8-98.3-15.3c-0.8-0.8-1.7-1.5-2.6-2.2
		c-10.1-6.4-17.4,5.1-21.3,14.1s-13.6,19.2-21.6,10.7c-1.1-1.2-2-2.5-2.6-4c-6.5-14.8-25.4-18.5-40.3-14.3
		c-13.9,3.9-25.6,13-38,20.4c-27.9,16.6-59.9,25.1-92.3,24.6c-13.2-0.2-31,1.3-31.2,16.1c0,2.2,0.4,4.5,1.2,6.6l12.7,35.6
		c2.9,8,5.7,17,2.4,24.9c-5.6,13.3-26.3,13.7-36.7,3.5s-12.4-25.9-12.2-40.4s2.1-29.3-2.3-43.1s-17.9-26.1-32.1-23.2
		c-9.4,2-16.2,9.8-24.1,15.4s-20,8.3-26.2,1c-2.2-2.6-3.2-6-4-9.4c-2.1-8.6-3.4-17.3-3.8-26.1c-0.2-4.8,0-10.3,3.6-13.5
		c2.3-2.1,5.6-2.8,8.8-3.1c17-1.7,33.5,5,50.1,8.9s36,4.6,48.6-7c2.7-2.3,4.7-5.4,5.7-8.8c2.5-10.2-8.7-19.2-19.2-19.5
		s-20.1,4.9-30,8.3s-22,4.7-29.8-2.3c-8.7-7.7-7.8-21.1-7.1-32.7c0.8-12.1-1-27-12.9-31.2c-5.9-1.9-12.3-0.8-17.1,3
		c-9.9,7.4-12.6,19.3-14.5,30.7c-2.2,13.2-3.6,26.6-4.3,40c-0.3,6.9-0.7,14.4-5.3,19.6c-9.3,10.5-28.6,1.2-32-12.4
		s3.1-27.6,9.5-40.1l23.4-45.8c4-7.8,8.1-15.8,14.6-21.8c11.8-10.9,30.8-12.9,44.6-4.8s21.2,25.8,17.3,41.4c-1.8,7.4-6,15-3.5,22.3
		c3,8.6,14.8,11.5,22.9,7.3s12.4-13.4,13.7-22.3c3-20.6-7.5-41.3-22.6-55.7s-34.2-23.5-53-32.5c-22.7-10.8-50.5-21.4-71.6-7.6
		c-6,3.9-11.9,10-19.3,8c-5.6-1.6-9.3-6.8-9-12.6c0.3-11,9.3-17.7,18.3-22.2c29.3-14.5,66.2-12.7,93.9,4.7
		c17.4,10.8,31.9,27.5,51.8,32.3c17.6,4.3,39.2-0.5,51.6,12.7c6.2,6.6,10,17.3,16,23.1c1.7,1.6,4.4,1.6,6-0.1c1.2-1.2,1.5-3,0.9-4.6
		c-10.3-24.1-25.8-47.2-50-56.1c-16.9-6.2-39.3-6.9-46.8-23.2c14.4-12.5,36.2-13.1,54-6.5s32.7,19.3,47,31.8c4.6,4,9.3,8.1,12,13.6
		c3.6,7.4,2.8,16,3.7,24.1c1.3,11.7,6,22.7,13.5,31.7c5.2,6.2,12.1,12.5,11.3,20.6s-9.6,13.2-17.7,14.5c-15.4,2.2-30.8-4-40.3-16.3
		c-2.4-3.2-4.7-6.8-7-10.4c-6.1-9.4-20.6-3.5-18.5,7.5c1.8,9.3,4.5,18.4,9,26.7c8.4,15.2,24.5,27.5,41.8,26.1
		c10-0.8,19-5.9,28.5-8.8s21.1-3.5,28.3,3.5c9,8.8,5.5,25.1-4,33.2s-22.8,10.1-35.4,10.7s-25.5,0.4-37.1,5.4
		c-4.9,2.1-10.1,6.3-7.5,12.3c1,2.1,2.6,3.8,4.7,4.8c28.7,14.1,62.1,2.5,90.7-10.8c10.3-4.8,20.7-9.9,28.5-18.1s12.8-20,10-30.9
		c-3.2-12.4-14.8-20.2-24.6-28.5c-10.5-8.8-19.6-19.1-27.2-30.5c-9.7-14.5-16.8-32.9-10.8-49.3s30.9-24.8,41.6-11
		c-2.8,24.1-4.7,51.2,10.9,69.8c10.6,12.6,27.7,18.8,37.1,32.4c7.4,10.7,10.2,25.8,21.9,31.4c19.4,9.2,41.5-17.2,61.8-10.1
		c6.2,2.2,11,7.2,15.9,11.5c15.4,13.3,34.8,21.1,55.1,22.3c17.2,0.9,36.3-4.2,45.6-18.7s2.2-38.6-14.9-40.6c-9.2-1.1-17.8,4-25.5,9
		s-15.8,10.6-25,10.7s-19-8.2-16.6-17.1c1.6-5.8,7.5-9.3,12.9-12.1l61.2-31.9c8.2-4.2,16.7-8.6,26.1-8c4.3,0.2,8.4,1.8,11.7,4.5
		c11.2,9.5,1.7,23.3,6.5,34.1c7.4,1.8,12.7-7,15.3-14.1c3-8.3,6.1-17,5.2-25.8s-7.1-17.8-15.9-18.7c-3.8-0.4-7.8,0.7-11.5-0.3
		c-5.2-1.4-8.5-6.4-12.6-9.9c-13.2-11.2-33.7-5.7-47.9,4.1s-26.5,23.2-42.9,28.4c-15.8,5-35.2,2.2-46.9,14c-8.8,9-11.2,24.8-23.1,29
		c-14.3,5-27.2-14.8-22-29s20.3-22.1,34.4-27.6c15.7-6.1,31.9-11,48.3-14.6c10.6-2.3,21.7-4.2,31-10l0.4-0.2
		c14-9,5.9-30.9-10.6-28.5c-12.5,1.8-25,6.6-37.2,10.4c-20.6,6.5-42,10.1-63.6,10.8c-12.5,0.5-23.1,9.4-25.6,21.6
		c-1.1,5.2-2.6,10.4-4.5,15.4c-5,13.3-24.2,11.8-27.2-2.1c-0.8-3.7-1.1-7.5-0.9-11.3c0.7-13.6,5.7-26.9,5.1-40.5
		c-0.2-6-1.9-12.5-6.6-16.2c-3.2-2.5-7.5-3.4-11.5-4.2c-14.8-2.6-29.8-4-44.8-4.2c-13.1-0.2-26.7,0.6-39-4
		c-13.6-5-25.5-18.7-21.2-33.5c1-3.6,3.6-6.6,7.1-8c8.2-3.1,15.3,4.7,21.3,10.8c13.2,13.3,30.9,21,49.6,21.8
		c25,0.8,51.6-10.8,73.9,0.4c8.8,4.4,15.8,12,24.7,16.3c21.7,10.5,46.9-1,70.5-5.9c33.7-6.9,68.7,0,97.4,19.1
		c9.4,6.4,18.4,14.2,29.5,16.6c14.9,3.3,31.7-3.7,45.3,3.3c12.1,6.3,16.8,21.9,15.1,35.4s-8.3,25.9-13.3,38.6
		c-3.4,8.5-4.1,21.3,5,23.4c3,0.6,6.2-0.1,8.7-1.9c19-13.2,23.1-38.3,23.1-60.9c0-21.4-2.4-43.7,6-63.4c1.7-3.9,3.9-7.8,7.3-10.4
		c7.6-5.6,18.1-3,27.4-1.8s21.4-1.2,23.5-10.4c2.7-11.8-13.4-18.4-25.5-18.5c-28.3-0.3-56.1,6.8-80.8,20.5
		c-13.7,7.6-28.1,17.6-43.5,14.6c-6.1-14,10-27.2,24-33.3c29.2-12.7,62.2-21.9,92.8-30.6c15.7-4.5,35.5-17.7,27.7-32
		c-48.4,7.3-99.1,15.6-137.9,45.4c-10.7,8.2-20.7,18.2-33.6,22.3c-24.1,7.7-49.5-7.2-74.8-6.9c-17,0.2-33.4,7.3-50.5,7.9
		c-10.6,0.3-22.2-3.3-29.8-10.2c-6.3-5.8-2.3-16.4,6.3-16.7l103.7-4c16-0.6,32.9-1.5,46-10.7s19-30.1,7.7-41.3
		c-8.4-8.4-24.3-2.2-28.5,7.1c-2.9,6.3-9.1,10.3-16.1,10.3l-70.4,0.3c-6.5,0-13.3,0-18.8-3.3c-7.8-4.5-11-13.9-13.7-22.5
		c-4.8-15.3-9.6-31.3-7.6-47.2c1.4-10.7,6.8-21.5,15.1-28.1c2.9-2.4,7.2-1.9,9.5,1c1.2,1.4,1.7,3.3,1.5,5.1
		c-2.5,18,2.2,37.1,14.6,50.2c15.3,16.2,42.6,20.8,60.8,7.9c9-6.4,15.1-16,23.7-22.9c6.1-5,14.7-8.2,22.2-6.9
		c6.1,1.1,12-2.8,13.2-8.9c0-0.2,0.1-0.5,0.1-0.7c1.3-8.5-4.6-16.4-13.1-17.7c-16.5-2.5-34.1,2-47,12.7c-10.8,9-23.3,22.9-35.9,16.7
		c-11.9-5.9-8.9-25.2,1.7-33.2s24.8-8.6,37.8-11.2c16-3.2,31.2-9.9,47.4-11.8s34.7,2.6,43.3,16.4c14.2,22.8-6.9,50.2-12.7,77
		c-1.7,8,3.3,15.9,11.3,17.6c2.4,0.5,5,0.4,7.3-0.3l103.5-30.4c10.3-3,23.2-11.4,18.4-21c-3.7-7.5-14.4-6.6-22.5-4.6l-75.3,18.7
		c-6.5,1.6-13.1-2.2-15-8.7c0-0.1,0-0.2-0.1-0.2c-1.8-6.3,1.6-12.9,7.8-15.2c18.8-6.8,40.2-5.9,59.9-10.8
		c23-5.7,46.8-27.5,38.7-49.8c-19-6.5-39.1,4.3-57.4,12.6s-42.5,13.5-56.4-1c-8.4-8.7-10.2-22.2-18.4-31.2
		c-11.1-12.3-30.4-12.6-46.4-8.1s-30.8,12.8-47.2,14.9c-6.2,0.8-12.8,0.6-18.4-2.2c-12.9-6.3-16.1-24.8-9.4-37.5
		s20.4-20.2,34.2-24.1c35.2-9.8,75.3,1.4,100.4,28c18.1,19.2,38.9,48.6,62.8,37.6c10.3-4.8,16.3-16.2,26.5-21.2
		c14-6.9,36.1-2.6,41.3-17.3c5.8-16.6-21.3-25.5-36.9-17.6s-29.8,23.1-47.2,20.7c-16.6-2.3-26.1-19.3-36.8-32.2
		c-22.9-27.4-61.9-40.2-96.6-31.7s-63.4,38-71,72.9c-2.2,10.1-3.2,21.5-10.8,28.4c-10.9,10-28.1,5.2-43,5.9
		c-29,1.3-51.2,24.9-71.6,45.5s-47.6,41-75.8,33.9c-13.6-3.4-24.8-12.9-36.9-20s-27.5-12-40-5.5s-15.2,28.4-2,33.3
		c5.7,2.2,12,0.5,18.1-0.1c27.9-2.6,54.2,18.7,82,15.2c40.2-5,61.4-57.9,101.6-62.7c4.6-0.5,9.6-0.3,13.7,1.9
		c6.2,3.4,9.2,10.7,11,17.5c14.8,54-19.8,122.1-75.7,125.7c-12.5,0.8-26.7-4.2-35.4-12.6c-7.7-7.3-1.7-20.5,8.9-19.7
		c32.7,2.5,66.6-20,77.6-50.8c3.5-9.7-7-18.4-16-13.5c-27.5,15.1-48.4,48.3-80.1,48.8c-21.7,0.4-44-15.2-63.5-5.7
		c-12,5.8-17.9,19-25.4,30s-20.6,21.2-33,16.5c-14.4-18,17.3-38.4,27.4-59c2.3-4.6,0.4-10.1-4.2-12.4c-2.6-1.3-5.7-1.3-8.3,0
		c-27.8,13.8-58.1,21.9-89.1,23.9c-13.6,0.9-28.4,0.2-39.2-8.2s-14-27.1-3-35.3c11.1-8.3,26.6-0.8,39.1,5.2
		c14.9,7.1,32.8,11.9,47.5,4.5s19.8-31.9,5.5-40.1c-5.8-3.3-12.9-3.1-19.6-2.6c-27.1,1.9-53.8,6.8-79.8,14.7
		c-9.1,2.7-18.5,6.1-24.7,13.3c-7.7,9-8.5,21.7-13.3,32.5c-2.3,5-5.9,9.4-10.5,12.5s-10.9,1.9-13.9-2.7c-1.4-2.1-2-4.6-1.6-7.1
		l8.3-54.7c1.1-6.9-3.7-13.4-10.6-14.4c-2.1-0.3-4.3-0.1-6.3,0.6c-15.2,5.7-27.3,21.1-26.3,37.5c0.4,7.5,3.1,15.1,1,22.3
		c-2.8,9.9-13.4,15.3-23.2,18.2c-27.2,7.7-56.3,5-81.7-7.7c-3.5-1.7-4.9-5.9-3.2-9.4c0.7-1.5,1.9-2.6,3.4-3.3
		c19-8.9,40.4-11.6,61-7.8c8.5,1.6,15.2-7.2,11.1-14.8s-12.8-13.7-21.7-14.7c-15.5-1.6-30.1,6.4-44.6,12.1s-32.4,8.8-44.5-1.1
		c-9.2-7.6-11.9-22-6-32.3s19.7-15.4,30.9-11.3c6.4,2.4,11.7,7.2,17.9,10.1c16.3,7.7,35.4,1,52.7-4.3c30.6-9.3,62.5-13.7,94.5-13
		c47.4,1,95.2,13,141.7,3.7c18.7-3.8,36.5-10.9,52.6-21.1c3.7-2.3,4.8-7.2,2.4-10.9c-1.1-1.8-2.9-3-4.9-3.5
		c-30.8-6.8-66.5,15.4-100.4,15.7c-6.9,0.1-14-0.9-19.8-4.6c-8-5.1-12.1-14.5-14-23.8c-9.7-47.9,30.9-92.5,75.2-112.9
		c33-15.2,72.9-25.1,90.2-57.1c9.2-17,10-37.3,17.1-55.3c5-12.6,15.7-24.6,27.9-28.5c7.9-2.5,15.3,5,13.1,12.9
		c-8.4,30.5-23.3,58.8-43.7,83c-12.2,14.4-27,28.9-28.2,47.7s22.9,37.6,36.2,24.2c5.4,0.7,7.7-7.4,5.2-12.4s-7.2-8.7-8.4-14
		c-1.8-7.5,4-14.5,9.3-20l36.9-38.6c8.4-8.8,17.3-17.9,28.9-21.5s26.6,0.4,31,11.7c7.1,18.4-16.5,33.2-35.6,38
		c-19.2,4.8-43.7,15.1-41.1,34.7c1.1,8.8,8,15.8,10,24.4c5.8,24-28.2,39.7-51.8,32.3s-42.4-26.4-66.4-32.6
		c-33.6-8.6-71.9,14.4-80.1,48c-2,8.2-2.2,17.5,2.7,24.4s16.3,9.2,21.8,2.8c1.7-13.5,4-28.3,14.3-37.2s30.8-5.2,31.8,8.4
		c0.4,5-2,10.4,0.1,15c3.5,7.7,15.6,5.8,21.7-0.1s10.3-14.2,18-17.7c15.2-6.9,31.2,10.4,34.1,26.9s-0.9,34.2,5.4,49.7
		c7.1,17.3,27.4,28.1,45.8,24.3c12.4-2.6,23-11.7,28.4-23.2c2.3-4.9,0.2-10.8-4.8-13.1c-1.4-0.7-3-1-4.5-0.9
		c-15.6,0.8-32.1-8.5-35.7-23.8c-4.7-19.7,18.3-40.9,36.7-32.4c15.4,7.2,20.5,27.8,30.1,41.5c5.4,7.6,15.8,9.3,23.4,4
		c0.8-0.5,1.5-1.1,2.1-1.8c13.4-13.4,30.9-22,49.8-24.2c11.5-1.3,25.6-1.4,31.2-11.5c6.7-12-6.8-27-20.6-27.6s-26,7.7-37.8,14.8
		s-25.7,13.7-38.7,9.5c-13.6-4.3-21.1-18.5-26.1-31.9c-6.3-16.9-10.3-37.3,0.4-51.9s40.5-10.7,40.1,7.4
		c-0.3,12.8-14.8,21.4-16.4,34.1c-2.2,16.4,21.2,27.1,35,18.1s16.5-29.2,10.4-44.5c-5-12.8-14.7-23.4-18.7-36.5s1.2-31.1,14.8-32.9
		c15.7-2.1,24.8,18.1,23.6,33.8s-7.2,32.5-0.1,46.6c10,9,23,15.8,36.4,14.9s26.7-11.4,27.3-24.8c0.6-12.8-13.8-24.5-25.3-20
		c-3.1,1.3-6.6,0.5-8.8-2c-3.9-4.7-4.1-13.8,1.3-18c7.7-6.1,19-3.6,27.6,1.1s16.3,11.4,25.8,13.6c11.5,2.7,23.2-1.6,34.7-4.4
		c34.2-8,70.3-2.3,100.3,16c17.4,10.7,32.4,25.5,51.4,33.1s44.6,5.1,54.6-12.7s-12.6-45.2-29.1-33.2c-4.9,3.5-8.1,9.5-13.7,11.8
		c-6.1,2.5-12.9,0-19-2.5l-75.5-31.2c-9.3-3.8-19.7-8.9-22.2-18.7c-3.5-13.6,12.4-25.7,26.4-24.5s25.7,10.6,37.1,18.9
		s25,16,38.8,13.1c8.5-1.7,15.6-7.3,23.2-11.3c19.2-10.1,41.8-11.3,62-3.4c11.9-4.5,8.2-24.3-3.3-29.9s-24.9-2.3-37.5-0.5
		s-27.7,0.8-34.8-9.8c-5.4-8.1-3.9-18.8-2.2-28.4c2.4-13.5,5.9-28.6,17.8-35.5c11.8-6.9,31.5,5.4,25,17.4
		c-2.6,4.8-8.2,7.2-11.4,11.6c-10.1,13.5,12.6,32.2,27.3,24s17.2-28.9,12.4-45c-4.8-16.1-15-30.3-19.8-46.5c-6-20.5-2.9-42.5-5-63.7
		c-1.5-15.6-7.3-32.3-18.4-42.5c-3.7-3.3-9.5-3-12.8,0.8c-1.5,1.7-2.3,4-2.3,6.2c1.2,18.6,9.7,37,13.4,55.7
		c3.6,18-1.1,40.6-14.1,51.2c-7.2,5.9-18,1.6-19.5-7.6c-2.1-13.1,0.1-27.3,0.1-40.8c0-11.9-3.2-25.2-10.4-34c-6.8-8.3-20-6.2-24,3.7
		c-10.7,26.4,5.9,61.6,14.7,91.8c7.9,27.3,8.4,56.1,1.6,83.7c-2.2,9.1-11.4,14.6-20.5,12.4c-2.6-0.6-5.1-1.9-7.1-3.7
		c-5.7-4.9-10.1-11.1-13-18c-2.9-6.6-10.2-10-17.1-8c-19.5,6.1-36.4,20.5-44.9,39.1c-5.8,12.8-8.1,27.6-17.2,38.5
		c-15.2,18.1-45.9,17.1-63.3,1.2s-22.1-42.5-16.3-65.4c3.4-13.3,11.1-26.8,24.1-31.3s30.3,5.7,28.4,19.3c-2.5,18-32.7,25-29.7,42.9
		c2.4,14.8,26.1,14.3,35.5,2.7s10.3-27.8,15.9-41.8c13.1-32.6,56.4-46.9,87.7-33c7.1,3.2,15.5,0,18.8-7.1c0.8-1.7,1.2-3.6,1.2-5.5
		c0.1-13.3-4.5-26.1-13-36.3c-13.3-15.9-33.6-24.5-53.9-28.5c-47.9-9.3-99.7,5.7-135.9,38.3c-6.1,5.5-1.2,15.6,7,14.2
		c15.7-2.7,31.6-14.5,46.8-22c27-13.1,60.3-11.7,86.7,2.4c7.3,3.9,5.1,14.9-3.2,15.5c-21.8,1.6-44.4-2-66.1,1.7
		c-45.6,7.8-81.3,52.4-81.1,98.2c0.1,5.7-4.5,10.3-10.1,10.4c-0.2,0-0.4,0-0.5,0h-0.1c-5-0.2-9.1-4-9.8-9
		c-2.4-16.2-26.8-26.3-45.8-26.3c-22.2,0-51.1-0.8-57.9-21.9c-2.5-7.8-0.9-16.2,1.2-24.1c7-27.5,22.8-57.1,48.1-66.6
		c4.1-1.5,8.7,0.6,10.3,4.7c0.7,1.9,0.7,4-0.1,5.9c-4.2,9.6-12.8,18-19.9,26.3c-10.2,11.8-17.8,31.1-6.4,41.9c4,3.8,9.4,5.5,14.7,7
		c13.6,4.1,28.1,8.1,41.8,4.4c7.9-2.2,14.6-7.5,18.7-14.7c2.7-4.9,0.9-11.1-4-13.8c-1.7-0.9-3.6-1.3-5.5-1.2
		c-8.4,0.4-16.8-1.5-24.3-5.3c-7.6-3.9-10.6-13.2-6.7-20.8c1.3-2.6,3.4-4.8,5.9-6.2l89.8-53.3c5-3,10.4-6.4,12.3-11.9
		c1.6-4.6,0.2-9.7-1.4-14.2c-13.4-37.5-51.4-64.6-91.1-65.7c-3.6-0.1-7,1.8-8.6,5l-0.1,0.2c-2.3,4.8-0.4,10.5,4.4,12.9
		c1.4,0.7,3,1,4.6,1c20.9-0.7,42.6,13.9,45.3,34.8c2.5,19.8-16.3,38.8-35.1,39.2c-3.1,0-5.7-2.5-5.7-5.6c0-1.4,0.5-2.7,1.4-3.7
		c5.9-6.8,7.9-17.2,3.6-25.3c-3.6-6.8-11.2-10.9-18.9-11.3c-5.8-0.2-10.6,4.3-10.8,10.1c0,0.7,0,1.3,0.1,2
		c1.6,12-10.7,25.7-23.4,30.8c-15.7,6.3-35,9-43.9,23.4c-7.5,12.2-4.6,29-13,40.7c-13.3,18.5-47.3,6.4-51.3-16s15.1-44,37.1-49.9
		c27-7.3,64.9-1.9,74.4-28.2c5-13.8-2.2-28.9-1.6-43.5c1.2-31.6,39.2-51.2,70.3-45s55.4,29.5,77.5,52.1s45.4,46.7,75.9,55.1
		c21.2,5.8,48.9,0,56.1-20.8c3.1-9,1.7-19.1-1.3-28.2c-8.8-26.8-31.2-48.6-58-57.3c-2.9-0.9-6,0.6-7,3.6c-0.5,1.5-0.3,3.2,0.5,4.5
		l25.1,42.3c3.6,6,1.6,13.8-4.4,17.4c-2,1.2-4.4,1.8-6.8,1.8c-30-0.7-59.3-29.1-79.7-53.7c-1.3-1.5-2.3-3.2-3-5
		c-4.8-12.1,6.8-19.4,16.8-23.6c33.1-13.8,74.8-22.6,101.8,0.9c11.6,10.1,18.2,24.5,28.1,36.3c7.2,8.7,17.8,16.1,28.6,17.2
		c5.6,0.6,10.7-3.5,11.3-9.1c0-0.4,0.1-0.8,0.1-1.2l-0.1-5.9c-0.1-5.7,4.4-10.3,10.1-10.4c0.6,0,1.1,0,1.7,0.1l41.6,6.3
		c9.6,1.4,23,0.2,24.2-9.4c1.2-9.9-12.1-14.1-22-14.7l-42.4-2.4c-5.7-0.3-10.1-5.2-9.7-10.9c0-0.1,0-0.2,0-0.2
		c0.3-4.3,1.1-8.6,2.2-12.8c1.5-5.2,6.8-8.2,12-6.7c0.9,0.3,1.8,0.7,2.6,1.2c8.4,5.5,17.4,10.1,27.2,11.6c13.8,2.1,30-4.2,34.5-17.4
		c3.8-11.3-1.7-23.3-7-34l-33-65.8c-8.6-17.2-24.9-37.6-42.7-30.1l43.6,81.1c6.3,11.7,7.7,32.5-5.5,32.4c-2.9-0.1-5.7-1.1-7.9-3
		c-37.6-30.4-39.2-100.9-86.5-110.6c-10-2.1-22.2,0.5-26.7,9.7c-7.3,15.1,11.1,29.2,25.8,37.4c20.1,11.2,39.1,26.1,49.7,46.5
		s10.8,47.4-4,65c-2.3,2.8-5.2,5.3-8.7,6.1c-8.6,2-15.8-7.7-16.4-16.4s2.7-17.4,2.3-26.2c-0.9-25.2-28.2-39.2-46.1-57
		c-16.8-16.7-26.6-39.6-44.2-55.5s-49.2-21.5-62.6-2c41.7,24.7,76.8,59.1,102.4,100.2c4.3,6.9,8.1,16.6,2.6,22.6
		c-7.6,8.2-20.3-0.8-30.6-5.1c-21.4-9-44.6,5.4-65.9,14.4s-53.8,7.4-58.9-15.2c3.3-20.9,32.5-22.3,53.4-19.4s50.8-3.1,49.5-24.2
		c-0.7-11.7-11.7-19.6-21.6-25.9l-92.5-58.1c-5.4,19,12.3,36.2,29.2,46.4c11.8,7.1,25.1,14.6,33.1,25.1c2.8,3.7,2.1,8.9-1.6,11.7
		c-1.6,1.2-3.5,1.8-5.5,1.7c-21.6-1.1-43.8,7.2-58.8,22.9c-9.2,9.6-16,21.7-26.8,29.4c-22.6,16.1-60,11.5-72.6,36.2
		c-10.4,20.3,4.1,48.9-11,66c-11,12.4-32.3,9.9-44.9-0.9c-7.8-6.7-13.2-15.5-17.4-24.9c-2.1-4.7,0-10.1,4.7-12.2
		c2-0.9,4.2-1,6.3-0.4l24,6.8c8.9,2.6,18.2-2.6,20.8-11.5c0.5-1.9,0.8-3.9,0.6-5.9c-1.6-18.9-11.8-41.6,3.7-50.4
		c7-4,15.7-2,23.8-2.2c25.7-0.8,46-30.4,37.3-54.7c-4.7-13.2-15.7-23-23.8-34.4s-13.5-27.4-5.7-39c15.3-0.1,26.2,14.8,32.1,29
		s10.3,30.3,23,39s35.8,0.8,33.1-14.3c-0.9-5.1-4.4-9.2-7.8-13.1c-26.4-30.6-60.8-63.6-101.1-54c-4.7,1.1-9.1,3.5-12.5,6.9
		c-15.7,16.1,2.2,41.5,18.1,57.3s28.4,46.1,8.7,56.5c-13.5,7.1-30-4.9-35.9-19s-5.4-30-10.3-44.5c-10.3-30.5-43.2-49.1-75.3-50.9
		S1008-12,979.2,2.2c-25.3,12.5-49.6,27.1-72.5,43.4c-15.7,11.2-31.7,24.5-37.2,43s5.2,42.7,24.5,44.3c10.2-2.3,12.5-16.2,10.1-26.4
		s-7.3-21-3.3-30.8c3.2-7.8,11.2-12.3,18.7-16.1c49-24.2,102.3-38.4,156.9-41.6c11-0.6,22.6-0.7,32.3,4.5s16.6,17.4,12.2,27.5
		c-5.4,12.5-23.1,13.8-36,9.2s-24.8-13.2-38.4-13.5c-22.8-0.5-40.2,23.4-41.1,46.2c-0.7,16.5,4.8,32.2,11.8,47.4
		c4.6,9.9,19.5,6.4,19.2-4.6c-0.4-17.1-8.1-39.1,1.5-53.5c9.4-14.1,31-13.1,46.3-5.8c24.7,11.8,42.9,36,48.2,62.7
		c0.7,3.3-1.4,6.5-4.7,7.2c-1.7,0.4-3.6-0.1-5-1.2c-16.1-13-31.2-27.2-45.2-42.6c-3.6-3.9-9.7-4.2-13.6-0.6
		c-0.9,0.8-1.6,1.8-2.1,2.9c-7.9,16.3-4,38.4,4.6,55.4c10.8,21.2,27.4,39.8,33.4,62.9c6.4,24.7-7,58-34.4,55.6
		c-5.7-0.4-10.7-3.8-13-9c-5.1-12.1,9.4-22.2,14.4-34c7.4-17.4-7.2-36.7-23.7-46s-36-14.1-49.3-27.6c-21-21.3-18.4-55-12.8-85.1
		c1.2-6.2-2.4-12.3-8.4-14.2c-14.1-4.4-33.4,6.3-41.1,20.9c-9.8,18.5-10.1,41-20.5,59.2c-7.2,12.7-19.2,23-22.5,37.3
		c-1,4.9-0.4,10,1.8,14.5c5.1,11.2,21.6,9.6,24.8-2.3c6.7-25.5,16.8-50.1,30.1-72.9c1.6-2.9,5.3-3.9,8.2-2.3c1.1,0.6,2,1.6,2.5,2.8
		c6.8,16.3-5.2,41.1,3.3,58.9c13.4,28.1,65.5,17.9,76.8,46.9c7.3,18.7-9.1,40.3-2.6,59.3c3.9,11.4,15,18.5,23.7,26.8
		c22.1,21,30.8,55,21.7,84c-7.6,24.2-27.4,44.1-51.2,52.7c-6.2,2.2-13.1-1-15.3-7.3c-0.9-2.4-0.9-5-0.2-7.4
		c6-20.8,31.5-40.8,30.6-64.4c-0.7-16.8-15.5-30.4-31.6-35.1s-33.4-2.6-50.1-0.5c-10.8,1.4-23.8,5.3-30.9,12.5
		c-5.7,5.8-0.7,15.5,7.3,14.4c9.3-1.2,18.5-5.1,27.7-7.8c13.2-3.8,30.1-3.8,37.6,7.8c14.3,22-23.1,46-21,72.1
		c1.1,13.4,12.8,25.6,9.6,38.7c-1.8,7.4-8,12.7-13.8,17.6l-39.2,32.7c-6.3,5.3-13.1,10.8-21.3,11.8c-1.8,0.2-3.6,0.1-5.4-0.2
		c-8.6-1.7-11.2-13-4.1-18.4c34.5-26.7,57.7-65.4,64.8-108.5c1.6-10.1-5.1-19.6-15.1-21.5c-24.2-4.2-49.2,1.8-68.7,16.8
		c-4,3.1-4.6,8.9-1.5,12.8c1.5,1.9,3.7,3.1,6.1,3.4l16.6,1.9c7.3,0.8,13.6,5.5,16.5,12.2c5.4,12.9,3.9,28.7-4.8,39.7
		c-11.5,14.5-34.2,18.6-50.2,9c-21.7-13.1-25.2-44.2-16.8-68.1s25.4-43.7,37.4-65.9c8.6-16,16.8-35.2,34.2-40.4
		c20.7-6.1,42.2,11.8,63.4,7.5c16.6-3.3,27.9-20,30.5-36.8s-1.8-33.7-6.1-50.1c-1.6-6.2-3.5-12.8-8.2-17.3
		c-4.5-4.3-10.8-5.9-16.9-7.2c-35.1-7.6-77.5-9.3-100,19.8c-1.6,2.1-2.7,4.5-3.2,7.1c-2,12.5,12.3,16.8,22.1,13.2
		c8.3-3,14.9-9.7,22.8-13.8c25.1-12.9,60.8,9.4,58.3,38.3c-0.2,2.7-1.3,5.4-3.2,7.4c-9.6,10.2-23.3-7.1-34.6-15.7
		c-22.5-17.2-55.1,6-66,32s-12.7,57-31.6,78.1c-15.2-2.1-23-20.8-20.2-35.9s12.4-27.9,19.6-41.4c11.2-21.1,16.6-44.8,15.9-68.6
		c-0.3-10.3-8.9-18.5-19.2-18.3c-0.3,0-0.5,0-0.8,0c-34.7,2-66.8,33.8-69.4,68.4c-0.7,9.4,10.7,14.7,17.5,8.1
		c8.9-8.7,15.3-19.6,18.6-31.5c1.1-4,6.3-5.1,8.8-1.8c3.8,5.2,4,14.9,2,22c-6.1,21.6-14.9,42.6-17.5,64.9c-1.9,16.3,0.1,34,8,48.1
		c2.2,3.9,0.7,8.8-3.2,11c-1.2,0.7-2.6,1-4,1c-36.5-0.5-73.2,16.8-95.3,46c-6.5,8.6-12,18.8-11.1,29.6c0.5,5.2,2.7,10.2,6.4,14
		c3.3,3.5,8.9,3.6,12.4,0.3c1.4-1.4,2.3-3.2,2.6-5.1c3.7-29,28.6-55.2,58-56.1c32.9-1.1,63.1,33.2,55.2,65.2
		c-5.3,21.7-25.1,41-17.1,63.2c1.3,3.8,4.3,6.9,8.1,8.4c13.3,5.1,21.6-14.7,21.9-28.9c0.3-12.2,5-28.4,15-30.8
		c3.1-0.7,6.2,0.5,8.1,3.1c20.1,26.6,32,58.6,34.2,91.9c0.5,7.3,0.3,15.2-4,21.2c-0.7,1-1.6,1.9-2.6,2.7c-6.5,5.1-16.1,0.9-17.2-7.3
		c-2.2-17.5-6.9-34.6-14-50.8c-0.8-1.9-3.1-2.8-5-2c-1,0.5-1.8,1.3-2.1,2.4c-4.5,14.8-6.7,30.2-6.3,45.6c0,10.8-8.2,19.8-18.9,20.8
		l-101.4,8.4c-12.5,1-26.1,1.8-36.3-5.5s-12.3-25.8-1-30.9c5.5-2.5,11.9-1,17.9,0.2c26.3,5.3,53.4,4.7,79.5-1.8
		c3.3-0.8,5.3-4.1,4.5-7.4c-0.3-1.1-0.8-2-1.5-2.8c-9.7-9.7-12.5-26.6-9.7-40.8c3.6-18.3,13.6-34.9,16.7-53.3s-4.1-41.2-22.2-45.8
		c-11.6-2.9-23.8,2.8-32.7,10.8c-16.4,14.7-24.2,38-21.2,59.7c0.7,4.9,5.2,8.3,10,7.6c2.3-0.3,4.4-1.5,5.8-3.3
		c6.9-8.8,12.9-18.3,18-28.3c1.4-2.7,4.7-3.8,7.5-2.5c1.4,0.7,2.5,2,2.9,3.6c7.3,29.5,4,60.7-9.2,88.1c-0.7,1.4-1.5,2.6-2.5,3.8
		c-6.5,7.2-14.4,2.8-20.3-1.7c-23-17.5-41.5-39.7-54.5-65.2c-2.5-5-8.6-6.9-13.6-4.4c-1.2,0.6-2.3,1.5-3.2,2.5
		c-7,8.6-10.1,20.5-7.2,31.3c1.8,6.7,5.6,12.8,6.7,19.6c1,6.5-0.5,13.2-2.1,19.7L644,692.2c-0.7,3.3-2.2,6.3-4.4,8.8
		c-10.9,12.8-28.5,1.4-42.2-6.1c-34.1-18.7-81.5-7-103,25.4c-9.2,13.9-16.5,32.6-32.9,35.4c-9.9,1.7-19.9-3.6-27.3-10.5
		c-11.4-10.8-18.6-25.2-20.3-40.8c-0.4-3.4,2.1-6.5,5.5-6.9c2.1-0.2,4.2,0.6,5.6,2.3c5,6.1,9.6,12.5,13.7,19.2
		c3.5,5.6,10.9,7.4,16.5,3.9c2.5-1.5,4.3-3.9,5.1-6.7c4.7-15.3,1.9-37.9,11.2-52.4c13-20.2,43.6-16.4,65.7-6.9s46.7,22.5,68.7,12.8
		c27.1-11.9,29.2-47.7,21.3-77.6c-2.2-8.2-13.1-10.2-17.8-3.1c-8,12-10.1,33.3-22.5,42.9c-17.5,13.6-41.4-3.4-62.8-9.2
		c-25.3-6.9-53.9,6.1-67.6,28c-5.4,8.6-18.8,4.3-18.3-5.8c0.8-14.1,10.6-29.7,24.4-35.4c22.8-9.4,48.6-2.9,73.2-2.6
		c24.6,0.3,54.2-10.9,57.6-35.3c1.3-9.3-0.6-21.1,7.4-26c7.5-4.7,16.4,1.2,25,6.1c7.7,4.3,17.5,1.6,21.8-6.1
		c0.8-1.4,1.3-2.9,1.7-4.4c13.1-59,41.8-113.3,83.1-157.5c9.2-9.8,19.9-22.1,16-35c-3.8-12.8-20.9-17.4-33.3-12.4
		c-12.4,5-20.7,16.5-27.7,27.9c-22.1,35.9-37.7,75.4-45.9,116.7c-3.3,16.5-8.3,36.7-24.7,40.9c-7.2,1.8-14.8-0.3-22.2-0.5
		c-21.3-0.7-41.1,16.9-45,37.5c-1.5,8.3-8.4,14.5-16.7,15.2c-11.7,0.9-23.8-3.1-32-11.6c-7.3-7.6-11.1-18.2-10.8-28.8
		c0.2-11,12.8-17.1,21.7-10.7c2.9,2.1,5.7,4.4,8.3,6.9c4.5,4.2,11.6,4,15.9-0.6c1.1-1.2,1.9-2.6,2.4-4.1c3.2-9.8,7.6-19.1,14.8-26.4
		c8.8-9,23.3-13.3,34.8-9.8c7.2,2.2,14.9-1.1,18.3-7.8l47.2-95.1c9.1-18.3,18.5-37,33.1-51.2s35.9-23.4,55.7-18.5
		c15.3,3.9,27.9,18.2,29.5,33.3c0.8,7.4,11.2,8.7,13.7,1.7c3.1-8.6,2.2-20.3-2.5-28.5c-8.7-14.9-24-27.6-24.2-44.9
		c-0.2-15.4,11.7-27.8,19.3-41.2s8.4-34.6-6-40.1c-13.3-5.1-26.8,8.8-30.1,22.6s-1.2,28.8-6.4,42.1c-5.9,15.2-21.9,26-38.2,25.8
		c-27.8-0.3-46.7-27.2-69.8-42.8c-38-25.6-94.9-17.5-124.2,17.8c-7.3,8.8-13.2,20.2-8.5,31.6c2.5,6.1,8.5,10.2,15.1,9.5
		c7.1-0.7,10.5-6.6,14.3-11.7c16.9-22.8,49.1-32.7,75.8-23.5s46,37,45.2,65.3c-0.6,21.9-11.7,41.9-22.5,60.9l-23.9,42.1
		c-2.6,4.5-5.5,9.4-10.3,11.4c-10.3,4.2-20.8-8.5-19.4-19.5s9.9-19.5,17.5-27.6c12.6-13.3,24.3-28.3,29.2-45.9s1.7-38.6-11.9-50.8
		s-38.3-11.6-48.2,3.8c-6.8,10.6-2.1,25.7,7.3,33c5.1,3.9,12.5,2.9,16.4-2.2c0.8-1.1,1.4-2.3,1.8-3.5c2.7-8.8,14.8-10.3,19.2-2.2
		c6,10.9,6.2,25.3-1.3,35.4c-11.5,15.5-37.9,16.5-50.6,1.9c-6.7-7.8-9.4-18.3-14.9-26.9c-11.5-18-36.5-25.9-56.3-17.9
		c-14.7,6-25.4,20.3-28.1,35.9c-1.7,9.8,11.2,15,16.6,6.6c4-6.3,7.9-13.9,13.4-18c8.5-6.5,21.6-3.5,29.4,4
		c7.8,7.4,11.6,18,15.2,28.1l18.3,52c4.1,11.7,8.3,24,6.5,36.3c-0.8,5-2.7,9.7-5.7,13.8c-7.4,10.1-23.4,6.4-25.8-5.9
		c-5.4-26.8,11.1-63.2-11.4-79.3c-16.6-11.8-39.2-0.3-56.1,11.1L349.1,478c-6.9,4.7-14.4,10.2-16.3,18.3s6.4,18.2,13.9,14.5
		c29.9-43,80.9-70.6,133.2-72c13.5,2,15.1,23.2,5,32.3c-10.1,9.1-25.3,9.3-38.9,8.9s-28.7-0.2-38.9,8.9s-8.6,30.3,4.8,32.4
		c13.8,2.2,26-16.7,39.7-6.3c2.3,1.8,4.3,4.1,5.6,6.7c7.3,13.4,15.9,27.7,15.9,43.2c-0.1,8.4-3.3,16.5-9,22.6
		c-3.8,3.9-10,4-13.9,0.2c-1.3-1.2-2.2-2.8-2.6-4.5c-6.5-24.3-26.9-44.9-51.6-50.7c-21.1-5-44.1,1.1-60.8,14.8
		c-6,4.9-2,14.7,5.7,13.8c28.3-3,58.1,0,72,23.2c18.7,31.2-8.1,68.5-18.6,103.3c-2.9,9.7-5.4,20.9-14.2,25.9
		c-17.9,10.1-34.2-14.9-52-25.2c-16.1-9.3-38.7-5-50.2,9.6c-6,7.6-10.8,18.4-21.6,16.8c-2.2-0.4-4.3-1.2-6.1-2.4
		c-15.5-10.2-23.1-29.5-21.3-47.7c0.4-3.9,3.8-6.7,7.7-6.3c1.7,0.2,3.2,0.9,4.4,2.1c5.7,5.9,13.6,9.1,21.8,8.8
		c14.6-0.8,27.2-9.8,40.5-15.9s30.6-8.9,41.2,1.1c5,4.6,7.6,11.4,12.7,15.9c12.2,10.7,32.9,3.1,41-10.9s7.1-31.3,5.2-47.4
		c-1.7-14.8-13.5-34.4-26.1-26.4c-15,9.7,2.9,42.2-14.1,47.6c-23.6-10.8-36.5-47.1-62-42c-13.5,2.7-20.2,15.7-23.6,29.9
		c-1.4,6.1-7.5,9.9-13.6,8.5c-0.6-0.1-1.3-0.3-1.9-0.6c-23.9-10.3-56.3-0.9-68.1,23c-37.3-5-77.1,21.5-91.8,56.2
		c-3,7-5.2,14.7-12.3,18.8c-3.1,1.9-7,2.1-10.4,0.5c-5.1-2.5-5.2-7.9-6.3-12.5c-3.7-15.3-19.5-24.9-35-27.2S7.3,689-8.3,690.6
		c-7.3,0.8-15.6,0.9-20.3-5.8c-3.8-5.7-3.5-13.3,0.9-18.5c8.9-11.1,22.9-11.1,35.7-10.8c16,0.4,32.6,0.9,46.8,8.4
		c13.7,7.2,30.1,20.4,41.8,10.3c5.8-5,6.6-13.5,11-19.7c7.6-10.9,23-11.7,35.4-16.4c14.8-5.6,26.3-17.4,39.7-25.7
		c18.5-11.5,40.3-16.4,61-23.2s41.8-16.5,54.2-34.5s12.4-45.9-5.1-58.9c-19.1,12.8-9.8,52.6-32.4,57c-16.8,3.3-25.9-18.9-27.6-36
		c-2.7-26.7-3.5-53.6-2.6-80.4c0.6-18.6,2.1-37.5-2.6-55.5c-8.5-32.3-38.4-57.8-71.7-61.1c-33.3-3.3-67.6,16-82.2,46
		c-5.2,10.6-1.4,29.5,9.8,26c6.6-2.1,8-10.5,10.2-17.1c7.5-21.4,36-29.8,57-21.3c22.5,9.1,36.8,32,44.3,54.7c1,3,1.1,6.2,0.1,9.2
		c-3.9,11.7-20.2,7.3-26.8-1.6c-6.2-8.3-8.9-19.4-17-25.9c-10.3-8.2-26.1-5.5-36.5,2.6c-10.4,8-16.7,20.2-22.7,31.9
		c-4.8,9.5-9.2,22.3-1,29.5c4.8,4,11.6,4.6,17,1.3c10.5-6,13.3-17.6,15.8-28.4c8-8.5,22.5-0.3,28.6,9.7s10.4,22.8,21.5,26.7
		c4.6,1.6,9.8,1.3,14.4,3c13.2,4.8,15.7,22.2,15.9,36.2c0.2,12.4-5.5,29.9-17.5,26.6c-7-1.9-9.7-10.2-12.2-17.1
		c-8.7-23.8-30.5-43.2-55.7-46.1c-26.7-3-55.3,14.7-60.6,41.4c-0.5,2.4-0.5,4.9,0,7.2c3.4,14.7,23,13.3,35,6.4
		c11.3-6.5,23.1-16.2,35.8-13.2c22.9,5.5,23.4,45.3,46.6,49.5c12.2,2.2,28.2-6.3,35.3,3.9c2.5,3.9,2.8,8.8,0.7,12.9
		c-8.2,17-31.3,16-46.8,7.3c-14.3-8-25.7-20.8-40.7-27.4c-28.4-12.5-69.4-4.2-84.5-31.2c-10.8-19.3,0.8-43.1,12.8-61.7
		s25.4-40.6,17.6-61.4c-4.5-12-15.4-20.5-26.4-27.2c-12.3-7.5-26.8-13.8-40.9-10.6c-14.1,3.2-25.6,19.8-18.7,32.6
		c8,1.9,16.4-0.8,24.6-0.3c13.9,0.8,26.5,11.9,29.1,25.6c1.5,8.9-0.8,18-6.3,25.2c-4.4,5.6-12.4,6.5-18,2.2
		c-0.7-0.5-1.3-1.2-1.9-1.8c-4.3-5.1-8.3-10.5-11.7-16.2c-3.6-6-11.5-8-17.5-4.4c-0.7,0.4-1.3,0.9-1.9,1.4
		c-7.5,6.7-11.5,20.1-7.8,30.4c5.9,16.4,21.2,27.6,29.1,43.1c8.6,16.9,8.2,38.2,20.8,52.4c10.3,11.7,26.9,15.3,42.4,16.9
		s31.7,1.8,45.6,8.9s24.6,23.8,18.7,38.2c-5.9,14.7-23.3,18.3-38.5,24.8c-3.6,1.5-7.7-0.2-9.1-3.8c-0.9-2.1-0.7-4.5,0.6-6.4
		c5.3-8.1,12.6-16,11.6-25.4c-0.9-7.4-6.8-13.2-14.1-14.1c-12.2-1.3-21.9,11.5-29.7,21.6c-8.2,10.8-24.7,20.6-34,10.7
		c-9-9.6,0.6-25.3-1.4-38.3c-1.5-9.5-9.1-16.6-15.7-23.6C-50,510-64.3,428.5-35.7,363.6c3.1-7.1,7-14.3,13.5-18.4
		c9-5.7,20.5-4.2,31-5.2c28.9-2.5,52.5-23.1,78.4-36.2c31.6-16,69.6-20.8,102.9-8.8c33.3,12.1,60.4,42.4,64.4,77.6
		c4.6,40.7-19.5,85-13.3,122.7c1.6,9.5,14.5,11.2,18.5,2.4l10.1-22.5c3.2-7.2,11-11.3,18.7-9.8c10.3,2,22.1-1.3,31.3-7.1
		c13-8.2,23.1-20.4,35.7-29.2c15.7-11,34.8-16.3,50.9-26.8s29.5-29.6,23.9-48c-3.7-12.3-14.8-20.7-25.3-28.3
		c-7.4-5.3-15.8-11-25.4-7c-5.5,2.2-8,8.4-5.1,13.6c3.2,5.7,11.1,5.4,17.2,7.5c16.3,5.6,18.1,30,7.2,43.4s-28.7,18.3-45.4,22.5
		c-10.4-0.9-13-15.8-8.8-25.3c4.2-9.6,12.2-17.9,12.9-28.4c0.5-8.5-3.9-16.3-8.2-23.6c-6.2-10.5-17.6-22.6-28.4-16.9
		c-8.7,4.6-8.6,16.8-7.2,26.5l5.4,39.6c2,14.4,3.8,29.4-0.7,43.2c-5,15.1-20.2,28.2-36.2,23.5c-5-1.3-9-4.9-10.9-9.7
		c-4.4-11.5,6.4-20.6,19-25.7c7.6-3,11.3-11.6,8.3-19.2c-0.6-1.5-1.4-2.9-2.4-4.1c-9.7-11.4-25.4-21.7-22-35.6
		c2.6-10.5,14.9-15.2,20.9-24.3c8.6-12.9,3.5-33.6,16.2-42.5c16.9-11.8,37.4,13.1,58,12c8.9-0.5,17.6-5.9,26.2-3.5
		c8,2.2,12.6,10.5,19.6,14.9c14.5,9.1,34.3-1.2,43.5-15.6s11.9-32,19-47.5c17.9-39.1,66.8-60.9,107.9-48.2
		c33.8,10.5,58.8,39.9,92,52.4c10.6,4,22.9,6,32.6-0.7c5.3-3.7,8.5-9.8,7.6-16.2c-1.1-7.9-7.7-11.4-13.9-14.4
		c-45.2-21.5-93.2-36.6-142.6-44.9c-8.1-1.4-18.9-6.5-15.7-14.4c1.1-2.7,3.4-4.7,6.2-5.4c41.3-12.2,83,10.5,119.5,32.3
		c10.4-6.5-1.2-22.2-12.7-26.6s-26.9-13-22-24.4c1.5-3.4,4.4-5.9,7.9-7c12.5-4.1,27,1,34.6,11.5c8.1,11,8.3,26.3,16,37.6
		s30.3,12.7,31.1-1c0.4-7.9-6.8-17.1-7.5-23.8c-0.3-2.2,1.4-4.3,3.6-4.5c1.1-0.1,2.2,0.2,3,0.9c14.4,12,32.6,18.8,50.3,25.3
		l17.6,6.4c12.9,4.8,26.4,9.6,40.1,8.3s27.8-10.4,29.9-24c1.1-7.3-2.8-14.8-8.5-19.2c-6.4-4.9-15.5-1.3-17.4,6.5
		c-2.1,8.7-9.1,16.4-18,16.7c-11.9,0.4-21.2-16.1-12.9-24.7c9.2-9.6,28.9-2.7,36.1-13.9c4.1-6.3,1.3-14.6-0.1-22
		c-3.9-20.5,4.8-42.9,21.6-55.3c9.2-6.8,20.3-10.6,30-16.8s18.4-16.1,18-27.5S898.3-15,888.8-8.6c-5,3.4-7,9.6-10.2,14.7
		C866.5,25,836.7,27,826.4,46.9c-9.3,17.9,2.4,40.7-4.9,59.5c-9,23.1-39.6,26.9-64.4,27c-7.7,0-16.9-0.8-20.5-7.6
		c-5.9-11,9.6-21.7,22.2-21.9s27.5,2.2,35.3-7.6c8.4-10.5,1-25.9,2.2-39.3c1.3-14.7,13.8-26.8,28-30.7c9.4-2.6,22.5-5.4,22-15.3
		c-0.3-3.9-2.5-7.3-5.8-9.3c-11.1-6.5-23.9-9.2-36.7-7.7c-9.4,1-16.7,8.6-17.4,18c-0.7,9.2-4.3,17.6-12.8,17.8
		c-10.2,0.2-14.8-12-20.5-20.5c-9.3-13.9-28.3-20.5-44.2-14.9c-1.6,0.5-3.1,1.5-4.3,2.7c-6,6.2,0.4,15.3,7.2,19.6
		c13.2,8.4,29.3,11.2,43.4,18.1s27.2,20.6,25,36.2s-27.9,23-33.6,8.4c-3.1-8,1.4-17.1-0.4-25.5c-4.3-20.3-34.7-16.4-53-26.3
		c-12.9-7-19.5-21.5-29.8-32s-30-15.6-38.1-3.4c-8.5,12.9,5.4,29.2,19.4,35.6c25.8,11.7,58.7,13.5,75.1,36.6
		c16.6,23.3,2.2,61.7-25.8,68.2c-11-9.8,3.5-26.3,6.7-40.7c1.8-8.3-1.6-16.7-7.5-22.7c-10.5-10.5-28.6-3.5-29.7,11.3
		c-0.4,5.2,0,10.4,1,15.5c0.7,3.2-1.4,6.4-4.6,7.1c-1,0.2-2.1,0.2-3.1-0.2c-6.5-2.2-12.7-10.5-14.5-18.2
		c-2.9-12.2-3.4-25.1-7.8-36.9S620,25,607.4,24.5s-24.2,15.1-16.9,25.3c3.3,4.5,8.8,6.6,13.7,9.4c15.9,9.3,24.6,29.9,19.2,47.5
		s-25,29.9-43,26.3c-8.9-1.8-16.8-6.9-25.5-9.3s-19.8-1.2-24.4,6.6c-3,5.1-2.5,11.3-3.2,17.2c-3,24.5-27.1,39.5-45.5,55.9
		c-11.3,10.2-21.5,22.2-35.2,28.7s-33,4.9-40.7-8.2s8.3-33.8,21.1-25.7c3.9,2.5,6.4,6.7,10.4,9.1c9.9,5.8,22.3-3.1,27.9-13.1
		s8.5-22.2,17.6-29.2c7-5.4,17-7,22.6-13.9c8.7-10.6,2.7-27.9,10.4-39.2c16.7-24.4,62.6,11.7,83.1-9.6c6.8-7.1,7.2-19.3,0.9-26.8
		s-18.5-9.1-26.5-3.7c-3.9,2.6-6.7,6.5-10.5,9.2c-15.3,10.7-37.7-2.2-54.8,5.4c-15.8,7.1-19.3,27.4-23.8,44.2s-17.9,36-34.6,31.1
		c-19.3-5.6-16.7-33.8-26.1-51.6c-8.9-16.8-32.2-20.4-48.8-12.5c-9,4.3-7.6,17.6,2.1,20.1c4.6,1.1,9,2.9,13.1,5.2
		c9.4,5.6,16.3,16.9,13.4,27.4c-3.5,13-19.5,18.4-33,17.3s-26.5-6.3-39.9-5.7c-5.7,0.3-11.3,2.1-16.2,5.2
		c-7.8,4.9-3.3,17.1,5.9,15.9c18.3-2.4,37.1-1.4,48.9,11.8c15.5,17.2,12,48.7,32.2,59.9c7.5,4.1,16.6,4.2,24.7,7
		c0.1,0,0.2,0.1,0.4,0.1c9.2,3.3,5.4,17.2-4.3,15.3l-43.7-8.6c-10.7-2.1-22.6-5-28.4-14.2c-6.2-10-2.7-22.8-3-34.5
		c-0.3-11-4.6-22.6-15.5-27.2c-6.4-2.7-14-1.5-18.7,3.6c-8.9,9.7-1.4,25.4-3.4,38.4c-4.1,26.1-45.3,36.3-44.3,62.8
		c0.3,8,3.6,18.6-3.9,21.9c-1.8,0.7-3.7,0.9-5.5,0.4c-20.8-4.2-20.2-34.6-7.5-50.8c12.5-15.8,31.8-26.5,39.8-44.9
		c6.9-15.8,3.4-35.5-8.5-48c-13-13.6-35.3-17.6-52.1-8.6c-3,1.5-5.1,4.3-6,7.5c-2.2,9.8,10.4,14.6,19.9,14.5
		c10.1-0.2,23-0.6,25.8,10.4c1.2,4.8-0.1,10-3.3,13.8l-39.3,48.1c-2.7,3.2-5.7,6.7-9.9,7.2c-4,0.5-7.7-1.9-11.1-4
		c-16.2-9.6-35-13.6-53.7-11.2c-11.8,1.5-23.7,5.5-35.4,3.4c-18.6-3.3-30.9-21.1-27.6-39.6c0.7-3.9,2.1-7.7,4.1-11.1
		c3.1-5.4,9.9-7.4,15.4-4.3c2.7,1.5,4.6,4.1,5.4,7c1.4,5.3,2.7,11,5.8,14.9c11.9,14.9,38.5-7.1,54.2,3.6c4.7,3.1,7.2,8.6,11.5,12.3
		c8.2,7,21.1,5.7,30.2,0c9.7-6.2,16.1-16.5,22.2-26.2c0.8-1.3,1.4-2.7,1.7-4.1c1.7-9.7-11.8-11.9-19.4-7.5c-7.1,4.1-13,11.3-21.1,12
		c-9.4,0.8-16.9-7.2-25.1-11.8c-10.4-5.7-22.9-6-33.9-10.2c-6.1-2.4-11.3-6.6-14.9-12c-5.9-9.4-18.3-12.4-27.4-6.2
		c-13,9-22.2,22.4-25.9,37.7c-4.5,18.9-1.1,38.8,6.9,56.6c3.5,8,0.6,17.4-6.8,22c-14.6,9.2-27.8,21-43.6,27.7
		c-20.9,8.8-51.7,3-56.3-19.3c19,2.1,39.4,2.3,55.8-7.5c7.2-4.4,12.9-10.8,16.4-18.5c6.8-14.5-11.7-27.6-23.1-16.4
		c-7.8,7.7-15.3,15.1-25,12.1c-11-3.4-13.3-19.4-6.7-28.8s18.4-13.4,29.6-16.1s23-4.8,32-12c8.4-6.7,12.3-17.7,11.7-28.4
		c-0.6-11.8-15.5-16.3-23-7.2c-2.3,2.8-4.9,5.4-7.8,7.6C21.3,189.7,9,192,0.4,186c-11.3-7.8-10.5-25.6-2.8-36.9
		c13.2-19.3,43.2-24.3,61.9-10.3c5.5,4.1,10.5,9.8,17.3,11.1c21.8,4.4,38.2-37.4,56.9-25.4c8.8,5.6,7.7,18.4,9.5,28.7
		c2,11.8,9.7,22.1,19.8,28.3c13.6,8.4,30.8-2.9,28.1-18.7c0-0.1,0-0.3-0.1-0.4c-1.8-9.9,4.7-19.4,14.7-21.2c0.5-0.1,1-0.2,1.5-0.2
		c10.2-1.1,20.8-0.7,31-0.1l118.6,6.2c4.1,0.2,7.6-2.9,7.8-7c0.1-2.4-0.9-4.8-2.9-6.2c-3.7-2.8-8-4.8-12.5-5.7l-60.4-11.6
		c-6.4-6.5,2.1-18,11.2-18.9s17.8,3.7,27,4.4c9.9,0.8,22.3-7,17.4-17c-1-2.1-2.6-3.8-4.5-5.1c-29.3-19.4-74.3,1.7-79.8,35.7
		c-14.2,8.5-31.8-0.2-47.1-6.5s-37.4-7.5-43.7,7.8c-4.1,9.9-1.9,26.1-12.6,27.4c-7.3,0.9-12.1-7.9-12.4-15.2s1.6-15.3-1.9-21.9
		c-5.6-10.7-21.4-10.6-32.4-5.5s-20.8,13.6-32.8,15.1c-19.5,2.4-36.5-14.4-56.1-15.5c-7.7-0.4-15.4,1.6-23,0.8S-18.2,96.6-18.7,89
		c-0.9-14.3,21-15.4,34.5-10.4s34.9,5.8,35.8-8.5c0.6-9.2-9.5-15.3-18.5-16.8s-19-0.8-26.5-6c-13.4-9-10.3-31.3,1.8-42
		s29.3-13,45.4-14.8C54.3,3.1,35.1,9.3,34.7,22c-0.4,10.2,11.2,15.9,19,22.4c10.6,8.8,16.1,22.2,25,32.8
		C87.4,87.6,103,95,114.3,87.8c8.3-5.4,10.7-16.6,5.3-24.9c-1-1.5-2.2-2.9-3.7-4.1c-9.4-7.6-23-3.1-33.8-7.6
		c-19-8-15.5-38.9,1.5-50.4c10.7-7.3,23.6-9.2,36.8-9c8,0.1,11.2,10.5,4.7,15.1L125,7c-9.2,6.6-9.3,20.5,0,27
		c16.7,11.7,27.8,31.6,26.9,52.1c-0.1,1.8,0.1,3.5,0.8,5.2c3.1,7.5,11.7,5.1,17.7,2c11.8-6.2,23.1-13.7,36-17.2
		c7.4-2.1,15.2-2.3,22.7-0.7c10.2,2.4,18.7-8.5,13.8-17.8c-3.8-7.3-10.5-13.1-18.6-14.8c-10.2-2.1-20.6,1.6-31,2.7
		s-22.9-1.8-26.7-11.5c-5-12.7,8.3-24.9,20.9-30.2c15.2-6.4,31.5-9.4,47.9-9c7.8,0.1,14.3,6.3,14.7,14.1c0.3,7.4,5.3,15.7,12.3,19.3
		c11.6,5.9,25.5,4.6,37.8,8.8c13.8,4.7,24.7,16.1,38.6,20.5c20.6,6.6,45.4-2.8,63.6,9c23.1,15,22.5,56.5,49.1,63.8
		c2.5,0.7,5.4,0.9,7.7-0.4c2.6-1.5,3.7-4.6,4.3-7.6c3.9-20.1-7.1-48.2,14-55.4c3.5-1.1,7.2-1.5,10.9-1.1c21.5,2.1,43-3.7,60.5-16.3
		c11.7-8.4,21.8-21.4,20.6-35.8S550.9-12.8,539-4.7c-8,5.4-9.8,16.6-16.6,23.5c-15.3,15.4-41.2,0.2-62.8,2.2
		c-14.2,1.3-26.3,11.9-31.6,25c-3.7,9-14,13.3-23.1,9.6c-1.7-0.7-3.3-1.7-4.7-2.9c-12.3-10.4-23.9-22-39.4-25.2
		c-12.9-2.7-26.1,1-39.3,1.3c-5.8,0.2-11.7-0.7-17.2-2.5c-9.8-3.4-10-17.2-0.3-21c14.5-5.7,29.8-9,44.4-4.5c9.5,3,17.8,9,27.3,12.2
		c38.9,13.1,85-41.4,122.9-25.4"/>
</g>
</svg>
