<svg xmlns="http://www.w3.org/2000/svg" viewBox="0 0 321.68 174.46"><defs><style>.cls-1{fill:#1aa3ff;}.cls-2{fill:#fff;}.cls-3{fill:none;stroke:#17b8ff;stroke-linecap:round;stroke-linejoin:round;stroke-width:10px;}</style></defs><g id="Calque_2" data-name="Calque 2"><g id="Calque_30" data-name="Calque 30"><rect class="cls-1" width="321.68" height="174.46" rx="33.02"/><path class="cls-2" d="M88.18,42.59h1.18q8.39,1.13,8.38,7.69-.85,4.89-4.67,4.89a4.41,4.41,0,0,1-4.19-3h-.22q-7.25,0-9.09,9.32-.24,1.66-.24,1.86,0,5.71,4.65,7.93c.34,0,.67,0,1,0a20.07,20.07,0,0,0,6-1,6.05,6.05,0,0,1,1.8-.3q2.52,0,3.71,2.79a7.57,7.57,0,0,1,.74,3,3.78,3.78,0,0,1-1.47,2.83,7.71,7.71,0,0,1-3.45,1.78,26.6,26.6,0,0,1-5.72.46q-11.18,0-15.15-10.24A20.4,20.4,0,0,1,70,63.32Q70,49.93,81.89,44A18.8,18.8,0,0,1,88.18,42.59Z"/><path class="cls-2" d="M114.71,42.35q10.53,0,14.68,10.27a12.24,12.24,0,0,1,.48,3.25q0,7.07-7.69,11.88,6.69,3.72,7.21,5.27a9.19,9.19,0,0,1,.52,1.92q0,3.63-4.65,4.41-4,0-13.56-8.56l-.48-.24c.16,1.54.24,2.71.24,3.49q0,5.77-5.13,6.53-3.93,0-4.65-4.67c0-.73-.08-2.52-.23-5.35s-.39-7.5-.71-14q0-10.56,6.29-12.82A24.47,24.47,0,0,1,114.71,42.35Zm-4.41,17q0,.69,3.72.69c3.72-.1,5.77-1.37,6.13-3.81a4.08,4.08,0,0,0,.06-.68q0-3-4.56-3.65h-2.33c-1.92,0-2.93.7-3,2.09Z"/><path class="cls-2" d="M154.77,43.05H158q4,1.22,4,4V48.4c-.82,2.65-2.14,4-4,4h-2.55q-11.19,0-11.18,1.85l-.7,2.58h.24q6.34-.48,8.6-.48,3.9,0,4.67,4.89,0,4.68-6.76,4.68-2.26,0-7.45.45c0,.1.23,1.81.7,5.14q11.7-1.63,13.73-1.64,3.23,0,4.2,4.89-.71,4.65-6.05,4.65-6,.7-13.74,1.88-5.83,0-7.47-8.39a40.86,40.86,0,0,1-.7-7.46q0-17.72,7.47-21Q144.95,43.06,154.77,43.05Z"/><path class="cls-2" d="M182,43.47h.7q4,0,6.77,9.09,5.59,12.75,10,21V75.4q0,3-4.68,4.19-4.19,0-6.53-7.23a30,30,0,0,1-11.18,2.2c-.77,0-1.54,0-2.31-.1Q172,81.69,169,81.69h-1.16c-2.65-.77-4-2.1-4-4V76.56q0-1.19,7.69-17.71,5.78-12.69,7-13.74A5.31,5.31,0,0,1,182,43.47Zm-.22,15.38-2.55,5.73h.22a8,8,0,0,0,1.4.12,11.53,11.53,0,0,0,3.87-.74Q182.25,58.85,181.78,58.85Z"/><path class="cls-2" d="M213.27,54.87q1,10.89,1,20.33,0,2.91-4.19,4.43h-.7q-4.2,0-4.89-5.13a17.32,17.32,0,0,1,.24-3.49c-.27-8.06-.58-13.41-.94-16.08-.08-.6-.16-1.06-.24-1.39A56.25,56.25,0,0,1,197,54.71c-2.74,0-4.3-1.63-4.67-4.91q0-4.63,8.86-5.35a90.23,90.23,0,0,1,13.28-.94q8.61,0,8.61,5.37-.84,4.9-4.66,4.9a37.93,37.93,0,0,0-4.43-.7h-.92Z"/><path class="cls-2" d="M244.44,43.05h3.26c2.64.81,4,2.13,4,4V48.4c-.81,2.65-2.14,4-4,4h-2.56Q234,52.38,234,54.23l-.7,2.58h.24q6.34-.48,8.61-.48,3.88,0,4.67,4.89,0,4.68-6.77,4.68-2.26,0-7.45.45c0,.1.23,1.81.7,5.14Q245,69.86,247,69.85q3.21,0,4.19,4.89c-.47,3.1-2.48,4.65-6.05,4.65q-6,.7-13.74,1.88-5.82,0-7.46-8.39a40,40,0,0,1-.7-7.46q0-17.72,7.46-21Q234.62,43.06,244.44,43.05Z"/><path class="cls-2" d="M95.12,95.21q10.51,0,14.67,10.27a12.36,12.36,0,0,1,.48,3.25q0,9.28-11.42,13.06a21.4,21.4,0,0,1-4.19.46h-3c.16,2.86.24,4.65.24,5.35a7,7,0,0,1-2.33,4.89,6.26,6.26,0,0,1-2.8.94q-3.93,0-4.65-4.65c0-.75-.08-2.53-.23-5.36s-.39-7.49-.71-14q0-10.56,6.29-12.82A24.53,24.53,0,0,1,95.12,95.21Zm-4.42,17c0,.46,1.24.7,3.72.7q4.22,0,5.41-1.26a3.76,3.76,0,0,0,1.06-2.7c0-.12,0-.24,0-.38-.11-1.91-1.71-3.19-4.82-3.81H93.72c-1.92,0-2.92.7-3,2.1Z"/><path class="cls-2" d="M124.41,96.57h.7q4,0,6.77,9.09,5.58,12.75,10,21v1.88q0,3-4.67,4.19-4.2,0-6.53-7.23a30.07,30.07,0,0,1-11.18,2.2c-.78,0-1.55,0-2.32-.1q-2.76,7.23-5.83,7.23h-1.16c-2.65-.77-4-2.1-4-4v-1.16q0-1.18,7.69-17.71,5.76-12.69,7-13.74A5.33,5.33,0,0,1,124.41,96.57ZM124.19,112l-2.56,5.73h.22a8.1,8.1,0,0,0,1.4.12,11.53,11.53,0,0,0,3.87-.74Q124.65,111.95,124.19,112Z"/><path class="cls-2" d="M158,95.45q10.53,0,14.68,10.27a12.24,12.24,0,0,1,.48,3.25q0,7.07-7.69,11.88,6.69,3.72,7.21,5.27a9.19,9.19,0,0,1,.52,1.92q0,3.63-4.65,4.41-4,0-13.56-8.56l-.48-.24c.16,1.54.24,2.71.24,3.49q0,5.78-5.13,6.53-3.94,0-4.66-4.67c0-.73-.07-2.52-.22-5.35s-.39-7.5-.71-14q0-10.56,6.29-12.82A24.47,24.47,0,0,1,158,95.45Zm-4.41,17c0,.46,1.24.7,3.71.7,3.73-.11,5.78-1.38,6.13-3.82a4.08,4.08,0,0,0,.06-.68c0-2-1.51-3.24-4.55-3.65h-2.33c-1.92,0-2.93.7-3,2.09Z"/><path class="cls-2" d="M195.59,108q1,10.89,1,20.33,0,2.91-4.19,4.43h-.7q-4.2,0-4.89-5.13a17.32,17.32,0,0,1,.24-3.49c-.27-8.06-.58-13.41-.94-16.08-.08-.6-.16-1.06-.24-1.39a56.25,56.25,0,0,1-6.51,1.17c-2.74,0-4.3-1.63-4.67-4.91q0-4.64,8.86-5.35a90.23,90.23,0,0,1,13.28-.94q8.61,0,8.61,5.37-.84,4.9-4.66,4.9a37.93,37.93,0,0,0-4.43-.7h-.92Z"/><path class="cls-2" d="M235.87,97.09c3.11.37,4.67,1.93,4.67,4.65q0,3.08-5.37,6.53-.06.35-7.23,7.23c0,1.37,0,2.66,0,3.85q0,11-1.71,12.25a6.77,6.77,0,0,1-3.68,1.37q-4.89-.93-4.89-4.89a89.42,89.42,0,0,0,.45-9.32V115.5l-9.3-10a5.43,5.43,0,0,1-1.18-3q.79-4.65,4.43-4.65h.7q3.28,0,10,9.09l.46.23Q232.33,97.09,235.87,97.09Z"/><rect class="cls-3" x="16" y="16" width="289.68" height="142.46" rx="17.02"/></g></g></svg>