<svg xmlns="http://www.w3.org/2000/svg" viewBox="0 0 321.68 174.46"><defs><style>.cls-1{fill:#19dd51;}.cls-2{fill:#fff;}.cls-3{fill:none;stroke:#32ed4c;stroke-linecap:round;stroke-linejoin:round;stroke-width:10px;}</style></defs><g id="Calque_2" data-name="Calque 2"><g id="Calque_31" data-name="Calque 31"><rect class="cls-1" width="321.68" height="174.46" rx="33.02"/><path class="cls-2" d="M128.13,52.06a47.16,47.16,0,0,1,.4,6.61q0,16.52-7,20.26a12.25,12.25,0,0,1-5.81,1.4q-8.52,0-13.06-8.62a25.06,25.06,0,0,1-.69-4.2q0-7.2,4.89-7.21h.48c2.51,0,4,1.64,4.41,4.9L111.54,68a4.15,4.15,0,0,0,3.95,2.8h.94q2.8-1.46,2.8-11.88a35.32,35.32,0,0,0-.78-6.37c-.89.06-1.92.15-3.08.26q-4.23.56-7.9.94-3.56,0-4-4.92,0-4.62,7.65-5.35a67.31,67.31,0,0,1,11.46-.94q7.42,0,7.43,5.38A6.45,6.45,0,0,1,128.13,52.06Z"/><path class="cls-2" d="M166.91,55.17a18.37,18.37,0,0,1,1.18,6.29v.94q0,7.89-7.71,13.5a18.85,18.85,0,0,1-10.24,3H148.5q-10.38,0-14.9-8.84a21,21,0,0,1-1.17-5.59q0-9.53,6.31-14.91a21.63,21.63,0,0,1,14.39-5.38Q161.19,44.21,166.91,55.17Zm-21.75,1.36Q142,59.2,142,64.26V65q0,3.87,6.29,4.65h2.1q8.38-1.08,8.38-7.91c0-3.84-1.53-6.29-4.59-7.33a9,9,0,0,0-2.92-.51A9.67,9.67,0,0,0,145.16,56.53Z"/><path class="cls-2" d="M176,43.29q4.85,0,5.59,7.93a66.38,66.38,0,0,1,.46,7q0,17.25-1.85,19.57a5.38,5.38,0,0,1-3.5,1.61h-.48q-4.41-.78-4.41-4.41.92-13.76.92-17.25a43.66,43.66,0,0,0-1.4-9.78Q172.3,43.29,176,43.29Z"/><path class="cls-2" d="M215,44.21q4.66,1.08,4.67,4.43V60.76q0,13.18-2.81,16.54-2.38,2.33-4.42,2.33h-1.39q-4.62,0-8.87-9-4-7.23-6.05-9.15L197.08,76q0,3-4.65,4.11h-.7q-4.65,0-4.89-13.5V64q0-12.72,4.89-14.68a9.44,9.44,0,0,1,3-.94q4.68,0,10.49,9.33,3.23,4.46,5.13,7.69,0-2.54-.12-7.07t-.12-9.71q1.14-4.19,3.49-4.35Z"/><path class="cls-2" d="M95.12,95.21q10.51,0,14.67,10.27a12.36,12.36,0,0,1,.48,3.25q0,9.28-11.42,13.06a21.4,21.4,0,0,1-4.19.46h-3c.16,2.86.24,4.65.24,5.35a7,7,0,0,1-2.33,4.89,6.26,6.26,0,0,1-2.8.94q-3.93,0-4.65-4.65c0-.75-.08-2.53-.23-5.36s-.39-7.49-.71-14q0-10.56,6.29-12.82A24.53,24.53,0,0,1,95.12,95.21Zm-4.42,17c0,.46,1.24.7,3.72.7q4.22,0,5.41-1.26a3.76,3.76,0,0,0,1.06-2.7c0-.12,0-.24,0-.38q-.16-2.86-4.81-3.81H93.72c-1.92,0-2.92.7-3,2.1Z"/><path class="cls-2" d="M124.41,96.57h.7q4,0,6.77,9.09,5.58,12.75,10,21v1.88q0,3-4.67,4.19-4.2,0-6.53-7.22a30.26,30.26,0,0,1-11.18,2.19c-.78,0-1.55,0-2.32-.1q-2.76,7.23-5.83,7.23h-1.16c-2.65-.77-4-2.1-4-4v-1.16q0-1.18,7.69-17.71,5.76-12.69,7-13.74A5.33,5.33,0,0,1,124.41,96.57ZM124.19,112l-2.56,5.73h.22a8.1,8.1,0,0,0,1.4.12,11.53,11.53,0,0,0,3.87-.74Q124.65,111.95,124.19,112Z"/><path class="cls-2" d="M158,95.45q10.53,0,14.68,10.27a12.24,12.24,0,0,1,.48,3.25q0,7.07-7.69,11.88,6.69,3.72,7.21,5.27a9.19,9.19,0,0,1,.52,1.92q0,3.63-4.65,4.41-4,0-13.56-8.56l-.48-.24c.16,1.54.24,2.71.24,3.49q0,5.78-5.13,6.53-3.94,0-4.66-4.67c0-.73-.07-2.52-.22-5.35s-.39-7.5-.71-14q0-10.56,6.29-12.82A24.47,24.47,0,0,1,158,95.45Zm-4.41,17c0,.46,1.24.7,3.71.7,3.73-.11,5.78-1.38,6.13-3.82a4.08,4.08,0,0,0,.06-.68c0-2-1.51-3.24-4.55-3.65h-2.33c-1.92,0-2.93.7-3,2.09Z"/><path class="cls-2" d="M195.59,108q1,10.89,1,20.33,0,2.91-4.19,4.43h-.7q-4.2,0-4.89-5.13a17.32,17.32,0,0,1,.24-3.49c-.27-8.06-.58-13.41-.94-16.08-.08-.6-.16-1.06-.24-1.39a56.25,56.25,0,0,1-6.51,1.17c-2.74,0-4.3-1.63-4.67-4.91q0-4.64,8.86-5.35a90.23,90.23,0,0,1,13.28-.94q8.61,0,8.61,5.37-.84,4.9-4.66,4.9a37.93,37.93,0,0,0-4.43-.7h-.92Z"/><path class="cls-2" d="M235.87,97.09c3.11.37,4.67,1.93,4.67,4.65q0,3.08-5.37,6.53-.06.35-7.23,7.23c0,1.37,0,2.66,0,3.86q0,11-1.71,12.25a6.84,6.84,0,0,1-3.68,1.36q-4.89-.93-4.89-4.89a89.42,89.42,0,0,0,.45-9.32V115.5l-9.3-10a5.43,5.43,0,0,1-1.18-3q.79-4.65,4.43-4.65h.7q3.28,0,10,9.09l.46.23Q232.33,97.09,235.87,97.09Z"/><rect class="cls-3" x="16" y="16" width="289.68" height="142.46" rx="17.02"/></g></g></svg>